<?xml version="1.0" encoding="UTF-8"?>
<svg xmlns="http://www.w3.org/2000/svg" xmlns:xlink="http://www.w3.org/1999/xlink" viewBox="0 0 750 500">
  <defs>
    <linearGradient id="linear-gradient" x1="382.05" y1="240.27" x2="495.05" y2="84.27" gradientUnits="userSpaceOnUse">
      <stop offset="0" stop-color="#e0eed5"/>
      <stop offset="1" stop-color="#dcefdc"/>
    </linearGradient>
    <clipPath id="clippath">
      <rect width="750" height="500" style="fill: none;"/>
    </clipPath>
    <radialGradient id="radial-gradient" cx="559.36" cy="122.56" fx="559.36" fy="122.56" r="166.68" gradientTransform="translate(1.8 58.4) rotate(1.88) scale(1 .37)" gradientUnits="userSpaceOnUse">
      <stop offset="0" stop-color="#f5f6e8"/>
      <stop offset="1" stop-color="#fcf5dd"/>
    </radialGradient>
    <radialGradient id="radial-gradient-2" cx="194.93" cy="110.18" fx="194.93" fy="110.18" r="166.68" gradientTransform="translate(485.06 62.59) rotate(178.12) scale(1 -.37)" xlink:href="#radial-gradient"/>
    <linearGradient id="linear-gradient-2" x1="383.28" y1="229.51" x2="376.28" y2="335.51" gradientUnits="userSpaceOnUse">
      <stop offset="0" stop-color="#f5f6e8"/>
      <stop offset=".38" stop-color="#f6f2da"/>
      <stop offset="1" stop-color="#f9ebbc"/>
    </linearGradient>
    <linearGradient id="linear-gradient-3" x1="460.49" y1="303.68" x2="462.47" y2="395.39" gradientUnits="userSpaceOnUse">
      <stop offset="0" stop-color="#bbdcc9"/>
      <stop offset="1" stop-color="#91c49b"/>
    </linearGradient>
    <linearGradient id="linear-gradient-4" x1="518.24" y1="264.04" x2="546.24" y2="335.04" gradientUnits="userSpaceOnUse">
      <stop offset="0" stop-color="#7ab1ae"/>
      <stop offset=".58" stop-color="#5a8f8f"/>
      <stop offset="1" stop-color="#487b7e"/>
    </linearGradient>
    <linearGradient id="linear-gradient-5" x1="181.99" y1="199.4" x2="125.99" y2="307.4" xlink:href="#linear-gradient-4"/>
    <linearGradient id="linear-gradient-6" x1="268.01" y1="356.2" x2="307.01" y2="282.2" gradientUnits="userSpaceOnUse">
      <stop offset="0" stop-color="#16414a"/>
      <stop offset=".42" stop-color="#274f5b"/>
      <stop offset="1" stop-color="#3c6070"/>
    </linearGradient>
    <linearGradient id="linear-gradient-7" x1="122.63" y1="322.61" x2="145.63" y2="194.61" gradientUnits="userSpaceOnUse">
      <stop offset="0" stop-color="#3c6070"/>
      <stop offset=".45" stop-color="#4b7480"/>
      <stop offset="1" stop-color="#639298"/>
    </linearGradient>
    <linearGradient id="linear-gradient-8" x1="625.8" y1="222.78" x2="645.8" y2="346.78" gradientUnits="userSpaceOnUse">
      <stop offset="0" stop-color="#215d67"/>
      <stop offset=".37" stop-color="#184f5a"/>
      <stop offset="1" stop-color="#0b3b49"/>
    </linearGradient>
    <radialGradient id="radial-gradient-3" cx="375" cy="442.56" fx="375" fy="442.56" r="273.43" gradientUnits="userSpaceOnUse">
      <stop offset="0" stop-color="#bbdcc9"/>
      <stop offset="1" stop-color="#dcefdc"/>
    </radialGradient>
    <linearGradient id="linear-gradient-9" x1="432.37" y1="304.71" x2="60.87" y2="406.21" gradientUnits="userSpaceOnUse">
      <stop offset="0" stop-color="#dcefdc"/>
      <stop offset=".16" stop-color="#b8d9b5"/>
      <stop offset=".26" stop-color="#a6cfa1"/>
      <stop offset=".29" stop-color="#9fcb9f"/>
      <stop offset=".38" stop-color="#94c59c"/>
      <stop offset=".48" stop-color="#91c49b"/>
      <stop offset="1" stop-color="#6dae84"/>
    </linearGradient>
    <linearGradient id="linear-gradient-10" x1="468.19" y1="370.54" x2="782.62" y2="370.54" gradientUnits="userSpaceOnUse">
      <stop offset="0" stop-color="#dcefdc"/>
      <stop offset=".16" stop-color="#b8d9b5"/>
      <stop offset=".26" stop-color="#a6cfa1"/>
      <stop offset=".29" stop-color="#9fcb9f"/>
      <stop offset=".38" stop-color="#94c59c"/>
      <stop offset=".48" stop-color="#91c49b"/>
      <stop offset="1" stop-color="#678667"/>
    </linearGradient>
  </defs>
  <g style="isolation: isolate;">
    <g id="Capa_2" data-name="Capa 2">
      <g id="BACKGROUND">
        <rect width="750" height="500" style="fill: url(#linear-gradient);"/>
      </g>
      <g id="OBJECTS">
        <g style="clip-path: url(#clippath);">
          <path d="m545.48,130.07c-23.5,0-42.56-4.97-42.56-11.1,0-5.33,14.44-9.79,33.67-10.85,9.19-5.53,27.92-9.32,49.55-9.32,25.39,0,46.79,5.22,53.43,12.35,7.71-2.02,18.38-3.27,30.18-3.27,23.51,0,42.56,4.97,42.56,11.1s-19.05,11.1-42.56,11.1h-124.28Z" style="fill: url(#radial-gradient);"/>
          <path d="m305.46,117.7c23.5,0,42.56-4.97,42.56-11.1,0-5.33-14.44-9.79-33.67-10.85-9.19-5.53-27.92-9.32-49.55-9.32-25.39,0-46.79,5.22-53.43,12.35-7.71-2.02-18.38-3.27-30.18-3.27-23.51,0-42.56,4.97-42.56,11.1s19.05,11.1,42.56,11.1h124.28Z" style="fill: url(#radial-gradient-2);"/>
          <path d="m307.81,288.52c0,39.53,32.04,71.57,71.57,71.57s71.57-32.04,71.57-71.57-32.04-71.57-71.57-71.57-71.57,32.04-71.57,71.57Z" style="fill: url(#linear-gradient-2);"/>
          <g style="opacity: .5;">
            <path d="m662.64,348.22c-12.47-9.73-48.46-54.7-64.25-62.55-11.36-5.81-26.32-11.44-41.56-9.39-14.41,1.88-23.83,9.91-32.14,16.91-6.65,5.81-14.68,14.69-27.7,14.86-14.41,0-27.15-9.05-36.85-14.52-9.42-5.29-22.99-13.83-37.4-11.61-14.41,2.22-23.27,13.15-32.14,19.64-10.25,7.68-22.99,14.17-39.89,14-8.59-.17-16.62-1.71-24.66-3.07-6.65-1.2-13.85-2.9-20.5-2.05-14.96,1.54-38.98,28.6-45.29,37.79h402.37Z" style="fill: url(#linear-gradient-3);"/>
          </g>
          <g>
            <path d="m490.54,252.25c17.81-3.86,19.3,30.2,37.73,14.23,18.43-15.97,51.12-71.97,61.86-75.04,27.77-7.94,40.7,72.78,61.07,43.07,14.29-20.84,35.3-92.21,66.02-98.36,58.27-11.66,50,279.12,50,279.12h-456.67s162.18-159.15,179.99-163.01Z" style="fill: url(#linear-gradient-4);"/>
            <g style="mix-blend-mode: screen; opacity: .7;">
              <path d="m490.54,252.25c-10.4,2.25-70.03,57.46-117.85,103.01,47.17-40.86,102.6-87.16,127.21-101.25-2.61-1.71-5.62-2.57-9.36-1.77Z" style="fill: #84b7ae;"/>
              <path d="m655.01,239.25c10.84-8.08,33.43-70.42,57.31-101.55-28.07,12.17-47.61,77.08-61.12,96.8-2.45,3.57-4.79,5.53-7.06,6.26,1.67,2.17,4.85,2.98,10.87-1.51Z" style="fill: #84b7ae;"/>
              <path d="m583,201.52c2.39-4.2,4.94-7.53,7.44-10.16-.1.03-.2.04-.31.07-10.74,3.07-43.43,59.07-61.86,75.04-3.57,3.09-6.5,4.3-9.04,4.28h0c18.25,5.61,47.74-41.06,63.77-69.24Z" style="fill: #84b7ae;"/>
            </g>
          </g>
          <g>
            <path d="m186.09,221.07c-14.5-3.14-15.71,24.58-30.71,11.58s-41.61-58.58-50.35-61.08c-22.6-6.46-33.13,59.24-49.71,35.05-11.63-16.96-28.73-75.05-53.73-80.06-47.43-9.49-40.7,227.18-40.7,227.18h371.7s-132-129.54-146.5-132.68Z" style="fill: url(#linear-gradient-5);"/>
            <g style="mix-blend-mode: screen; opacity: .6;">
              <path d="m186.09,221.07c8.47,1.83,57,46.77,95.92,83.84-38.39-33.26-83.51-70.94-103.54-82.41,2.12-1.39,4.58-2.09,7.62-1.44Z" style="fill: #7ab1ae;"/>
              <path d="m52.22,210.49c-8.83-6.58-27.21-57.31-46.65-82.65,22.85,9.9,38.75,62.74,49.75,78.79,1.99,2.91,3.9,4.5,5.74,5.09-1.36,1.77-3.95,2.43-8.85-1.23Z" style="fill: #7ab1ae;"/>
              <path d="m110.83,179.78c-1.95-3.42-4.02-6.13-6.05-8.27.08.02.17.04.25.06,8.74,2.5,35.35,48.08,50.35,61.08,2.91,2.52,5.29,3.5,7.36,3.49,0,0,0,0,0,0-14.85,4.57-38.86-33.42-51.9-56.36Z" style="fill: #7ab1ae;"/>
            </g>
          </g>
          <g>
            <path d="m381.98,353.75h-219.24s43.53-118.26,73.8-121.94c20-2.43,38.66,41.36,145.44,121.94Z" style="fill: url(#linear-gradient-6);"/>
            <path d="m328.99,338.32c-7.03-8.92-13.52-18.38-22.17-25.95-8.92-7.84-20.54-10.27-31.63-14.87-4.87-1.89-10.54-4.6-13.25-9.46-2.7-5.68-1.89-12.98-2.43-18.92-1.59-15.86-8.55-27.35-18.87-37.15,18.86,3.58,41.84,46.71,141.33,121.79h-36.71c-5.94-4.21-11.4-9.22-16.27-15.43Z" style="fill: #487b7e; mix-blend-mode: screen; opacity: .4;"/>
            <path d="m277.36,267.49c-9.49-10.58-21.57-23.47-34.24-34.84,18.51,6.68,43.67,49.26,138.86,121.1h-18.74c-5.78-4.53-11.44-9.28-16.95-14.35-24.6-22.17-46.77-47.04-68.94-71.91Z" style="fill: #f3ebc4; mix-blend-mode: screen; opacity: .4;"/>
            <path d="m273.17,353.75s-91.88-87.97-131.46-124.13c-39.59-36.16-53.56-49.97-69.89-39.59-21.5,13.68-79.17,107.52-110.94,163.72h312.29Z" style="fill: url(#linear-gradient-7);"/>
            <path d="m134.38,237.43c-19.69-18.18-39.67-38.69-45.85-49.74,11.89,3.75,26.88,17.9,53.18,41.92,39.58,36.16,131.46,124.13,131.46,124.13h-73.39c-15.75-22.66-41.29-59.61-52.7-77.22-17.1-26.39,12.71-15.64-12.71-39.1Z" style="fill: #95bcb9; mix-blend-mode: screen; opacity: .4;"/>
            <path d="m141.71,229.61c39.58,36.16,131.46,124.13,131.46,124.13h-37.15c-24.45-31.58-89.3-114.14-131-156.43,9.37,7.19,21.02,17.99,36.68,32.3Z" style="fill: #f3ebc4; mix-blend-mode: screen; opacity: .4;"/>
            <path d="m490.78,353.75s91.88-87.97,131.46-124.13c39.58-36.16,53.56-49.97,69.88-39.59,21.5,13.68,79.17,107.52,110.94,163.72h-312.29Z" style="fill: url(#linear-gradient-8);"/>
            <path d="m629.57,237.43c19.69-18.18,39.67-38.69,45.85-49.74-11.89,3.75-26.88,17.9-53.18,41.92-39.59,36.16-131.46,124.13-131.46,124.13h73.39c15.75-22.66,41.29-59.61,52.7-77.22,17.11-26.39-12.71-15.64,12.71-39.1Z" style="fill: #336c73; mix-blend-mode: screen; opacity: .4;"/>
            <path d="m622.24,229.61c-39.59,36.16-131.46,124.13-131.46,124.13h37.15c24.45-31.58,89.3-114.14,131-156.43-9.37,7.19-21.02,17.99-36.68,32.3Z" style="fill: #84b7ae; mix-blend-mode: screen; opacity: .4;"/>
          </g>
          <g>
            <rect y="348.22" width="750" height="188.66" style="fill: url(#radial-gradient-3);"/>
            <g style="mix-blend-mode: multiply; opacity: .3;">
              <path d="m459.74,348.22h290.26v63.75c-71.08-21.61-159.56,3.29-203.64-34.54-14.97-12.84-88.62-24.55-86.62-29.21Z" style="fill: #99c2b4;"/>
              <path d="m0,348.22h370.66c16.16,4.49,31.86,9.98,46.32,17.33,7.33,4,18,9.33,9.33,16.67-11.33,10.67-39.33,10-53.33,12-27.33,4-55.33,6.67-82.67,11.33-14,2-40.67,4.67-51.33,17.33-18,22,62,52.67,74,58.67,36.08,17.53,71.65,36.09,106.88,55.33H0v-188.66Z" style="fill: #99c2b4;"/>
            </g>
            <g style="mix-blend-mode: color-dodge; opacity: .6;">
              <path d="m342.1,420.89c6.86-.01,13.71-.28,20.57-.29.64,0,.64-1,0-1-6.86.01-13.71.28-20.57.29-.64,0-.64,1,0,1h0Z" style="fill: #ddeee4;"/>
              <path d="m370.49,424.65c4.63.5,9.26.04,13.9,0,.64,0,.65-1,0-1-4.64.04-9.27.5-13.9,0-.64-.07-.63.93,0,1h0Z" style="fill: #ddeee4;"/>
              <path d="m351.95,425.52c3.08.28,6.17.56,9.27.58.64,0,.64-1,0-1-3.1-.02-6.18-.3-9.27-.58-.64-.06-.64.94,0,1h0Z" style="fill: #ddeee4;"/>
              <path d="m354.84,431.31h10.43c.64,0,.64-1,0-1h-10.43c-.64,0-.64,1,0,1h0Z" style="fill: #ddeee4;"/>
              <path d="m326.46,427.84c4.92.5,9.84.04,14.77,0,.64,0,.65-1,0-1-4.93.04-9.85.5-14.77,0-.64-.07-.63.93,0,1h0Z" style="fill: #ddeee4;"/>
              <path d="m320.66,424.36h3.77c.65,0,.65-1,0-1h-3.77c-.64,0-.64,1,0,1h0Z" style="fill: #ddeee4;"/>
              <path d="m392.21,412.2c3.47.27,6.95.29,10.43.29.64,0,.64-1,0-1-3.48,0-6.96-.02-10.43-.29-.64-.05-.64.95,0,1h0Z" style="fill: #ddeee4;"/>
              <path d="m413.07,402.06c4.14-.55,8.29-.58,12.45-.58.64,0,.64-1,0-1-4.16,0-8.32.03-12.45.58-.63.08-.64,1.08,0,1h0Z" style="fill: #ddeee4;"/>
              <path d="m455.36,388.73c2.71,0,5.41.01,8.11.29.64.07.63-.93,0-1-2.7-.28-5.4-.29-8.11-.29-.64,0-.64,1,0,1h0Z" style="fill: #ddeee4;"/>
              <path d="m439.85,391.61c1.39-.26,2.8-.27,4.21-.27.64,0,.64-1,0-1-1.5,0-3,.03-4.48.31-.63.12-.36,1.08.27.96h0Z" style="fill: #ddeee4;"/>
              <path d="m451.01,371.06h5.21c.64,0,.64-1,0-1h-5.21c-.64,0-.64,1,0,1h0Z" style="fill: #ddeee4;"/>
              <path d="m449.85,377.44h3.19c.64,0,.64-1,0-1h-3.19c-.64,0-.64,1,0,1h0Z" style="fill: #ddeee4;"/>
              <path d="m437.69,362.37c2.12-.28,4.25-.33,6.37-.58.63-.07.64-1.08,0-1-2.12.25-4.26.3-6.37.58-.63.08-.64,1.08,0,1h0Z" style="fill: #ddeee4;"/>
              <path d="m463.6,360.33c1.19-.28,2.41-.27,3.63-.27.64,0,.64-1,0-1-1.31,0-2.62,0-3.9.31-.63.15-.36,1.11.27.96h0Z" style="fill: #ddeee4;"/>
              <path d="m260.12,428.42h39.68c.64,0,.64-1,0-1h-39.68c-.65,0-.65,1,0,1h0Z" style="fill: #ddeee4;"/>
              <path d="m289.38,437.98c8.98.01,17.96.28,26.94.29.64,0,.64-1,0-1-8.98-.01-17.96-.28-26.94-.29-.64,0-.64,1,0,1h0Z" style="fill: #ddeee4;"/>
              <path d="m336.6,444.06c6.67,0,13.34.03,19.99.58.64.05.64-.95,0-1-6.65-.55-13.32-.58-19.99-.58-.64,0-.64,1,0,1h0Z" style="fill: #ddeee4;"/>
              <path d="m187.13,451.01c23.14,2.4,46.43,2.22,69.66,2.75,23.41.53,46.85,1.68,70.24,2.75.64.03.64-.97,0-1-23.4-1.07-46.83-2.2-70.24-2.75-23.23-.55-46.52-.35-69.66-2.75-.64-.07-.63.93,0,1h0Z" style="fill: #ddeee4;"/>
              <path d="m282.43,468.39c8.89,0,17.78-.24,26.65.58.64.06.64-.94,0-1-8.87-.82-17.76-.59-26.65-.58-.65,0-.65,1,0,1h0Z" style="fill: #ddeee4;"/>
              <path d="m391.74,407.06c2.9,0,5.76-.07,8.63-.52.64-.1.37-1.06-.27-.96-2.78.44-5.56.48-8.37.48-.64,0-.64,1,0,1h0Z" style="fill: #ddeee4;"/>
              <path d="m411.74,407.06h3.5c.64,0,.64-1,0-1h-3.5c-.64,0-.64,1,0,1h0Z" style="fill: #ddeee4;"/>
              <path d="m430.24,404.56c1.57,0,3.12-.05,4.63-.52.61-.19.35-1.16-.27-.96-1.43.44-2.88.48-4.37.48-.64,0-.64,1,0,1h0Z" style="fill: #ddeee4;"/>
              <path d="m476.1,392.04c15.49,3.04,31.1-1.89,46.63-1.98.64,0,.64-1,0-1-15.43.09-30.98,5.04-46.37,2.02-.63-.12-.9.84-.27.96h0Z" style="fill: #ddeee4;"/>
              <path d="m528.74,384.56c14.03,1.88,27.97-1.42,42-1.5.64,0,.64-1,0-1-14.03.08-27.97,3.38-42,1.5-.64-.09-.63.92,0,1h0Z" style="fill: #ddeee4;"/>
              <path d="m505.1,382.04c6.02.93,12.07.54,18.13.52.64,0,.64-1,0-1-5.97.02-11.94.43-17.87-.48-.63-.1-.9.87-.27.96h0Z" style="fill: #ddeee4;"/>
              <path d="m473.24,383.06h10.5c.64,0,.64-1,0-1h-10.5c-.64,0-.64,1,0,1h0Z" style="fill: #ddeee4;"/>
              <path d="m464.6,378.04c1.66.51,3.41.52,5.13.52.64,0,.64-1,0-1-1.63,0-3.29,0-4.87-.48-.62-.19-.88.78-.27.96h0Z" style="fill: #ddeee4;"/>
              <path d="m459.74,374.56c.64,0,.64-1,0-1s-.64,1,0,1h0Z" style="fill: #ddeee4;"/>
              <path d="m425.74,354.56c13.84.95,27.66-.96,41.5-1,.64,0,.64-1,0-1-13.84.04-27.66,1.95-41.5,1-.64-.04-.64.96,0,1h0Z" style="fill: #ddeee4;"/>
              <path d="m448.24,357.06h6c.64,0,.64-1,0-1h-6c-.64,0-.64,1,0,1h0Z" style="fill: #ddeee4;"/>
              <path d="m412.24,351.56h11c.64,0,.64-1,0-1h-11c-.64,0-.64,1,0,1h0Z" style="fill: #ddeee4;"/>
              <path d="m435.74,351.56h7c.64,0,.64-1,0-1h-7c-.64,0-.64,1,0,1h0Z" style="fill: #ddeee4;"/>
              <path d="m425.24,359.06h5c.64,0,.64-1,0-1h-5c-.64,0-.64,1,0,1h0Z" style="fill: #ddeee4;"/>
              <path d="m378.24,438.56h13c.64,0,.64-1,0-1h-13c-.64,0-.64,1,0,1h0Z" style="fill: #ddeee4;"/>
              <path d="m401.24,439.06c.71,0,1-.29,1-1,0-.64-1-.64-1,0,0,.08,0,.15,0,.23.08-.08.15-.15.23-.23-.08,0-.15,0-.23,0-.64,0-.64,1,0,1h0Z" style="fill: #ddeee4;"/>
              <path d="m412.74,438.56v.5c0,.64,1,.64,1,0v-.5c0-.64-1-.64-1,0h0Z" style="fill: #ddeee4;"/>
              <path d="m382.74,443.56v.5c0,.64,1,.64,1,0v-.5c0-.64-1-.64-1,0h0Z" style="fill: #ddeee4;"/>
              <path d="m406.24,425.06h.5c.64,0,.64-1,0-1h-.5c-.64,0-.64,1,0,1h0Z" style="fill: #ddeee4;"/>
              <path d="m417.88,419.41l.5.5c.46.46,1.16-.25.71-.71l-.5-.5c-.46-.46-1.16.25-.71.71h0Z" style="fill: #ddeee4;"/>
              <path d="m400.74,419.56c.64,0,.64-1,0-1s-.64,1,0,1h0Z" style="fill: #ddeee4;"/>
              <path d="m347.74,407.56h.5c.64,0,.64-1,0-1h-.5c-.64,0-.64,1,0,1h0Z" style="fill: #ddeee4;"/>
              <path d="m335.74,409.06v.5c0,.64,1,.64,1,0v-.5c0-.64-1-.64-1,0h0Z" style="fill: #ddeee4;"/>
              <path d="m343.74,410.06c.64,0,.64-1,0-1s-.64,1,0,1h0Z" style="fill: #ddeee4;"/>
              <path d="m341.74,407.56c.64,0,.64-1,0-1s-.64,1,0,1h0Z" style="fill: #ddeee4;"/>
              <path d="m330.88,408.91c.17.17.33.33.5.5.46.46,1.16-.25.71-.71-.17-.17-.33-.33-.5-.5-.46-.46-1.16.25-.71.71h0Z" style="fill: #ddeee4;"/>
              <path d="m318.74,409.06c.64,0,.64-1,0-1s-.64,1,0,1h0Z" style="fill: #ddeee4;"/>
              <path d="m329.24,412.06h.5c.64,0,.64-1,0-1h-.5c-.64,0-.64,1,0,1h0Z" style="fill: #ddeee4;"/>
              <path d="m356.74,408.56h10.5c.64,0,.64-1,0-1h-10.5c-.64,0-.64,1,0,1h0Z" style="fill: #ddeee4;"/>
            </g>
          </g>
          <g>
            <path d="m440.86,376.22c-5.45,5.9-86.67,13.33-109.33,14-22.67.67,25.49,8.77-35.59,14.39-61.08,5.62-95.74-3.06-128.41,8.28-32.67,11.34-85.28,25.22-167.64,25.22v-89.89h370.66c23.65,0,78.32,19.33,70.32,28Z" style="fill: url(#linear-gradient-9);"/>
            <path d="m160.86,402.73c32.85-10.8,67.37-1.57,128.53-6.19,61.16-4.62,13.14-13.51,35.82-13.81,22.68-.3,110.89-2.78,116.43-8.59h0c.06.75-.19,1.45-.78,2.09-5.45,5.9-86.67,13.33-109.33,14-22.67.67,25.49,8.77-35.59,14.39-61.08,5.62-95.74-3.06-128.41,8.28-32.67,11.34-85.28,25.22-167.64,25.22v-12.8c78.32.5,129.07-12.09,160.97-22.58Z" style="fill: #6dae84; mix-blend-mode: multiply; opacity: .5;"/>
            <path d="m472.64,348.22c-19.53,1.11,30.45,8.98,50.47,14.16,20.02,5.18,131.66,29.62,177.09,30.65,45.43,1.03,82.43,4.03,82.43,4.03l-6.5-53.03s-262.47,1.87-303.48,4.2Z" style="fill: url(#linear-gradient-10);"/>
            <path d="m707.95,389.48c-45.43-.84-157.18-24.82-177.21-29.92-14.9-3.79-51.96-7.55-61.96-9.72,4.86,2.83,38.71,8.5,54.32,12.54,20.02,5.18,131.66,29.62,177.09,30.65,45.43,1.03,82.43,4.03,82.43,4.03l-.55-4.47c-13.41-.88-41.6-2.51-74.12-3.11Z" style="fill: #6dae84; mix-blend-mode: multiply; opacity: .5;"/>
          </g>
        </g>
      </g>
    </g>
  </g>
</svg>