<?xml version="1.0" encoding="UTF-8"?>
<svg id="Capa_2" data-name="Capa 2" xmlns="http://www.w3.org/2000/svg" xmlns:xlink="http://www.w3.org/1999/xlink" viewBox="0 0 211.99 309.3">
  <defs>
    <clipPath id="clippath">
      <path d="m177.9,95.27c0,7.69-1.21,15.12-3.44,22.05-.02.07-.05.16-.07.23-9.38,29.02-36.62,50-68.77,50s-59.38-20.98-68.75-50c-1.14-3.53-2.04-7.18-2.62-10.92-.58-3.65-.9-7.39-.9-11.27,0-1.95.07-3.85.23-5.71.44-5.76,1.55-11.34,3.27-16.64,9.39-29.02,36.62-50,68.77-50s59.4,20.98,68.79,50c.05.14.09.28.12.42,2.19,6.9,3.37,14.24,3.37,21.84Z" style="fill: none;"/>
    </clipPath>
    <clipPath id="clippath-1">
      <path d="m89.4,103.76c6.71-37.05,65.17-33.82,58.53,14.7-1.29,13.15-7.47,19.6-3.35,30.17,4.13,10.57-3.61,20.37-12.12,18.05-18.63-6.75-45.99-39.23-43.06-62.92Z" style="fill: #975f30;"/>
    </clipPath>
  </defs>
  <g id="BG">
    <g>
      <g>
        <polygon points="88.11 154.41 144.48 309.3 155.14 282.89 164.71 258.94 187.22 271.22 211.99 284.73 155.61 129.84 88.11 154.41" style="fill: #9c6c44;"/>
        <polyline points="101.19 151.93 142.72 266.04 149.51 249.39 155.57 234.29 169.84 241.98 185.53 250.45 144 136.35" style="fill: #603813;"/>
      </g>
      <g>
        <polygon points="123.88 154.41 67.51 309.3 56.85 282.89 47.28 258.94 24.77 271.22 0 284.73 56.37 129.84 123.88 154.41" style="fill: #9c6c44;"/>
        <polyline points="110.8 151.93 69.27 266.04 62.48 249.39 56.42 234.29 42.15 241.98 26.46 250.45 67.99 136.35" style="fill: #603813;"/>
      </g>
      <circle cx="106" cy="95.56" r="84.07" transform="translate(-36.53 102.94) rotate(-45)" style="fill: #8c6239;"/>
      <g>
        <path d="m194.64,95.46l6.3-9.98-8.23-8.45,4.08-11.07-9.81-6.56,1.69-11.68-10.96-4.37-.77-11.77-11.63-2-3.2-11.36-11.79.46-5.49-10.44-11.44,2.9-7.54-9.07-10.58,5.22-9.27-7.3-9.27,7.3-10.58-5.22-7.54,9.07-11.44-2.9-5.49,10.44-11.79-.46-3.2,11.36-11.63,2-.77,11.77-10.96,4.37,1.69,11.68-9.81,6.56,4.08,11.07-8.23,8.45,6.3,9.98-6.3,9.98,8.23,8.45-4.08,11.07,9.81,6.56-1.69,11.68,10.96,4.37.77,11.77,11.63,2,3.2,11.36,11.79-.46,5.49,10.44,11.44-2.9,7.54,9.07,10.58-5.22,9.27,7.3,9.27-7.3,10.58,5.22,7.54-9.07,11.44,2.9,5.49-10.44,11.79.46,3.2-11.36,11.63-2,.77-11.77,10.96-4.37-1.69-11.68,9.81-6.56-4.08-11.07,8.23-8.45-6.3-9.98Zm-88.65,78.74c-43.49,0-78.74-35.25-78.74-78.74S62.51,16.72,105.99,16.72s78.74,35.25,78.74,78.74-35.25,78.74-78.74,78.74Z" style="fill: #754c24;"/>
        <path d="m178.27,95.46c0,7.69-1.21,15.12-3.44,22.05-.02.07-.05.16-.07.23-9.38,29.02-36.62,50-68.77,50s-59.38-20.98-68.75-50c-1.14-3.53-2.04-7.18-2.62-10.92-.58-3.65-.9-7.39-.9-11.27,0-1.95.07-3.85.23-5.71.44-5.76,1.55-11.34,3.27-16.64,9.39-29.02,36.62-50,68.77-50s59.4,20.98,68.79,50c.05.14.09.28.12.42,2.19,6.9,3.37,14.24,3.37,21.84Z" style="fill: #754c24;"/>
        <g>
          <path d="m106.54,32.07l3.47,8.5,9.16.67c1.33.1,1.87,1.76.85,2.62l-7.02,5.93,2.19,8.92c.32,1.29-1.09,2.32-2.23,1.62l-7.81-4.84-7.81,4.84c-1.13.7-2.54-.32-2.23-1.62l2.19-8.92-7.02-5.93c-1.02-.86-.48-2.52.85-2.62l9.16-.67,3.47-8.5c.5-1.23,2.25-1.23,2.75,0Z" style="fill: #a67c52;"/>
          <path d="m137.7,45.55l1.91,4.69,5.05.37c.81.06,1.14,1.08.52,1.6l-3.87,3.27,1.21,4.92c.19.79-.67,1.42-1.36.99l-4.31-2.67-4.31,2.67c-.69.43-1.56-.2-1.36-.99l1.21-4.92-3.87-3.27c-.62-.53-.29-1.54.52-1.6l5.05-.37,1.91-4.69c.31-.76,1.38-.76,1.69,0Z" style="fill: #a67c52;"/>
          <path d="m74.28,45.22l-1.91,4.69-5.05.37c-.81.06-1.14,1.08-.52,1.6l3.87,3.27-1.21,4.92c-.19.79.67,1.42,1.36.99l4.31-2.67,4.31,2.67c.69.43,1.56-.2,1.36-.99l-1.21-4.92,3.87-3.27c.62-.53.29-1.54-.52-1.6l-5.05-.37-1.91-4.69c-.31-.76-1.38-.76-1.69,0Z" style="fill: #a67c52;"/>
        </g>
      </g>
      <g style="clip-path: url(#clippath);">
        <g>
          <g>
            <path d="m111.7,99.99c-.33-2.96-1.5-5.96-3.85-7.79-2.39-1.86-5.64-2.23-8.65-1.94-6.1.59-11.91,3.68-15.85,8.38-1.38,1.65-2.55,3.52-3.11,5.59-1.41,5.29,1.72,11.18,6.57,13.71s12.76,2.91,18.48-.72c4.37-2.77,7.23-9.94,6.4-17.23Z" style="fill: #c7b299;"/>
            <path d="m112.26,99.99c-.4-3.2-1.6-6.41-4.28-8.38s-6.42-2.24-9.7-1.79c-6.84.93-13.6,4.99-17.16,10.99s-1.41,12.85,3.9,16.67c5.03,3.62,12.61,3.82,18.19,1.45,7.27-3.09,9.81-11.6,9.05-18.94-.07-.7-1.18-.71-1.11,0,.59,5.71-.81,13.1-5.87,16.59-4.71,3.24-11.46,3.55-16.71,1.54s-9.32-7.97-7.79-13.74c1.62-6.12,8.03-10.77,13.8-12.6,3.26-1.04,7.05-1.56,10.37-.48,3.85,1.26,5.73,4.88,6.2,8.69.09.7,1.19.71,1.11,0Z" style="fill: #796e64;"/>
          </g>
          <path d="m96.78,105.73c-.55.09-1.1-.22-1.29-.76-.06-.17-1.54-4.18-5.27-3.35-1.61.36-2.77,1.12-3.45,2.27-.51.88-.56,1.68-.56,1.68-.02.64-.55,1.15-1.2,1.13-.64-.02-1.15-.56-1.13-1.2.04-1.69,1.32-5.16,5.83-6.15,2.4-.53,4.55.16,6.23,2.01,1.2,1.32,1.72,2.79,1.75,2.85.21.61-.11,1.27-.71,1.49-.06.02-.13.04-.2.05Z" style="fill: #796e64;"/>
          <g>
            <path d="m89.4,103.76c6.71-37.05,65.17-33.82,58.53,14.7-1.29,13.15-7.47,19.6-3.35,30.17,4.13,10.57-3.61,20.37-12.12,18.05-18.63-6.75-45.99-39.23-43.06-62.92Z" style="fill: #975f30;"/>
            <g style="clip-path: url(#clippath-1);">
              <path d="m145.36,147.34l9.03,12.64-22.69,18.31-14.93-11.36s9.26-.5,17-7.98c7.74-7.48,11.6-11.6,11.6-11.6Z" style="fill: #975f30;"/>
            </g>
          </g>
          <g>
            <path d="m104.52,108.47c-.02,2.98.79,6.1,2.91,8.19,2.16,2.13,5.34,2.88,8.36,2.95,6.13.13,12.26-2.25,16.73-6.46,1.56-1.47,2.95-3.19,3.74-5.19,2.02-5.09-.39-11.31-4.91-14.39s-12.33-4.39-18.44-1.46c-4.67,2.24-8.35,9.02-8.39,16.36Z" style="fill: #c7b299;"/>
            <path d="m103.96,108.47c.02,3.28.92,6.77,3.5,8.98s6.21,2.81,9.54,2.71c6.97-.23,14.32-3.65,18.37-9.45,3.7-5.29,2.23-12.54-2.55-16.67s-12.68-5.2-18.62-3.07c-7.01,2.52-10.16,10.55-10.26,17.5-.01.71,1.09.71,1.11,0,.08-5.61,2.24-12.4,7.33-15.46s12.33-2.48,17.39.27,8.01,8.76,6.05,14.21c-1.13,3.13-3.79,5.65-6.48,7.49s-5.56,3.02-8.66,3.64c-3.48.7-7.55.79-10.79-.85-3.53-1.79-4.83-5.55-4.85-9.29,0-.71-1.11-.71-1.11,0Z" style="fill: #796e64;"/>
          </g>
          <path d="m55.17,118.53l43.07-2.7s10.14-1.14,7.91,4.23c-2.23,5.37-9.78,9.98-30.73,11.62-20.95,1.64-33.36-3.87-33.19-7.12s1.75-4.81,12.94-6.03Z" style="fill: #796e64;"/>
          <path d="m127.02,109.93c-.72,0-1.35-.52-1.48-1.25-.04-.23-1.08-5.65-6.01-5.39-2.13.11-3.77.84-4.87,2.16-.84,1.01-1.06,2.02-1.07,2.03-.16.82-.95,1.34-1.76,1.18-.82-.16-1.35-.95-1.19-1.77.42-2.15,2.78-6.29,8.73-6.6,3.17-.17,5.76,1.17,7.51,3.88,1.25,1.94,1.6,3.92,1.62,4,.14.82-.41,1.6-1.22,1.74-.09.02-.17.02-.26.02Z" style="fill: #796e64;"/>
        </g>
      </g>
      <path d="m141.11,34.74L44.59,124.22c-4.47-9.12-6.99-19.37-6.99-30.2,0-8.03,1.39-15.74,3.93-22.91l48.29-43.82c5.3-1.31,10.84-2.01,16.53-2.01,12.68,0,24.56,3.45,34.77,9.46Z" style="fill: #c7b299; opacity: .5;"/>
      <path d="m167.97,68.79l-93.93,87.08c-9.46-4.61-17.71-11.32-24.14-19.53l101.49-92.11c7.18,6.83,12.88,15.19,16.59,24.55Z" style="fill: #c7b299; opacity: .5;"/>
    </g>
  </g>
</svg>