<?xml version="1.0" encoding="UTF-8"?>
<svg id="Capa_2" data-name="Capa 2" xmlns="http://www.w3.org/2000/svg" xmlns:xlink="http://www.w3.org/1999/xlink" viewBox="0 0 573.36 419.79">
  <defs>
    <clipPath id="clippath">
      <path d="m128.67,51.07c13.67-75.42,132.67-68.83,119.15,29.92-2.62,26.77-15.21,39.89-6.82,61.41,8.4,21.52-7.35,41.47-24.67,36.74-37.91-13.75-93.61-79.86-87.66-128.08Z" style="fill: #03a6a6;"/>
    </clipPath>
  </defs>
  <g id="Agua">
    <g style="opacity: .3;">
      <path d="m148.81,403.02c-17.92,0-37.1-.43-55.91-3.54-8.12-1.34-34.81-7.25-37.38-26.87-2.19-16.67,14.84-28.95,25.18-34.78,47.64-26.86,105.13-31.82,155.86-36.2,23.23-2,47.23-4.76,70.45-7.43,47.43-5.45,96.48-11.09,144.42-11.09,33.68,0,63.55,2.75,91.33,8.41,8.56,1.74,17.42,3.96,23.34,10.06,9.64,9.92,7.88,26.29,1.85,38.1-12.56,24.65-40.65,40.6-85.88,48.76-53.69,9.69-109.11,10.86-162.71,11.98h-.18c-52.4,1.1-106.59,2.24-159.89,2.56-3.49.02-6.97.04-10.46.04Z" style="fill: #29abe2;"/>
      <path d="m451.41,283.61c33.64,0,63.49,2.75,91.23,8.4,8.49,1.73,17.26,3.92,23.08,9.91,9.47,9.75,7.71,25.87,1.77,37.53-12.48,24.5-40.46,40.36-85.53,48.5-53.65,9.69-109.06,10.85-162.66,11.98-52.45,1.1-106.69,2.24-160.03,2.56-3.48.02-6.96.04-10.45.04-17.91,0-37.06-.43-55.84-3.53-8.03-1.33-34.44-7.16-36.97-26.44-2.15-16.38,14.7-28.51,24.93-34.28,47.54-26.81,104.98-31.76,155.65-36.14,23.24-2.01,47.24-4.77,70.46-7.43,47.42-5.45,96.45-11.09,144.36-11.09m0-1c-71.67,0-144.68,12.46-214.91,18.52-53.64,4.63-109.16,9.82-156.06,36.26-13.43,7.57-27.43,19.99-25.43,35.28,2.17,16.55,21.33,24.57,37.8,27.3,18.48,3.06,37.26,3.55,56.01,3.55,3.49,0,6.97-.02,10.45-.04,53.37-.32,106.72-1.44,160.08-2.56,54.46-1.14,109.19-2.31,162.79-11.99,33.77-6.1,70.66-18.45,86.24-49.03,6.26-12.29,7.67-28.78-1.94-38.68-6.07-6.25-15.07-8.46-23.6-10.2-30.01-6.11-60.6-8.42-91.43-8.42h0Z" style="fill: #0071bc;"/>
    </g>
    <g style="opacity: .3;">
      <path d="m300.45,390.02c-37.35,0-74.87-.59-111.14-1.17h-.1c-31.74-.5-64.57-1.02-96.85-1.6-8.48-.15-18.09-.32-26.45-3.84-7.53-3.17-15.27-10.48-15.58-19.69-.29-8.54,5.61-15.74,10.62-20.28,16.92-15.34,40.46-19.96,63.11-23.37,30.09-4.54,61.1-7.97,94.8-10.49,48.09-3.6,99.39-5.22,166.33-5.24,6.19,0,12.44-.05,18.72-.09,6.44-.04,13.1-.09,19.69-.09,33.23,0,68.43,1.22,100.76,10.07,16.25,4.45,29.46,13.02,37.21,24.14,5.67,8.15,8.65,19.96,2.5,28-4.85,6.35-13.43,8.06-21.8,9.28-87.91,12.73-175.39,14.36-241.79,14.36h-.02Z" style="fill: #29abe2;"/>
      <path d="m423.59,304.66c33.19,0,68.35,1.22,100.62,10.05,16.13,4.42,29.25,12.92,36.93,23.95,5.57,8,8.51,19.58,2.52,27.42-4.74,6.2-13.21,7.89-21.48,9.09-87.88,12.72-175.35,14.36-241.73,14.36-37.34,0-74.86-.59-111.14-1.17h-.3c-31.68-.51-64.43-1.02-96.65-1.6-8.43-.15-17.99-.32-26.27-3.8-7.38-3.1-14.97-10.26-15.28-19.24-.29-8.35,5.53-15.42,10.46-19.89,16.82-15.24,40.27-19.84,62.85-23.25,30.07-4.54,61.07-7.97,94.77-10.49,48.08-3.6,99.37-5.22,166.29-5.24,6.19,0,12.57-.05,18.73-.09,6.44-.05,13.1-.09,19.69-.09m0-1c-12.94,0-25.79.18-38.41.18-55.49.02-111.02,1.1-166.37,5.24-31.72,2.38-63.38,5.75-94.84,10.5-22.62,3.41-46.42,8.14-63.37,23.5-5.95,5.39-11.06,12.65-10.78,20.67.31,9.03,7.56,16.63,15.89,20.13,8.33,3.5,17.61,3.72,26.64,3.88,32.32.58,64.63,1.09,96.95,1.6,37.02.59,74.1,1.17,111.16,1.17,80.96,0,161.84-2.78,241.87-14.37,8.15-1.18,17.12-2.92,22.13-9.47,6.22-8.14,3.36-20.19-2.49-28.59-8.69-12.48-22.82-20.32-37.48-24.34-32.35-8.86-66.89-10.09-100.89-10.09h0Z" style="fill: #0071bc;"/>
    </g>
    <g style="opacity: .3;">
      <path d="m426.59,419.29c-4.58,0-9.18-.21-13.07-.4-92.75-4.76-188.65-9.69-281.69-26.19-18.38-3.26-36.02-7.1-49.86-18.09-7.94-6.31-14.05-14.66-17.66-24.13-2.68-7.03-3.49-13.54-2.41-19.37,3.22-17.39,22.1-25.96,30.06-28.84,16.65-6.01,34.51-7.46,52.88-8.52,5.53-.32,11.45-.47,18.62-.47,6.19,0,12.57.11,18.74.22,6.24.11,12.69.23,19.01.23,11.27,0,26.01-.31,40.12-2.76,9.03-1.57,16.58-5.9,23.88-10.09,7.99-4.59,16.25-9.33,26.71-10.73,23.79-3.2,49.94-5.02,79.97-5.58,3.76-.07,7.53-.1,11.2-.1,57.5,0,105.57,8.54,146.96,26.12,10.94,4.65,23.15,10.79,30.79,21.11,6.89,9.31,9.78,24.63,1.56,34.68-7.68,9.39-19.98,10.08-33.01,10.82-10.13.57-20.61,1.16-29.09,6.1-9.16,5.33-14.46,14.86-19.58,24.07-4.18,7.51-8.5,15.28-14.9,20.83-11.35,9.84-26.93,11.1-39.23,11.1Z" style="fill: #29abe2;"/>
      <path d="m383.1,264.97c57.43,0,105.43,8.53,146.76,26.08,10.87,4.62,23.01,10.72,30.58,20.95,6.78,9.16,9.63,24.21,1.57,34.07-7.54,9.22-19.74,9.91-32.65,10.64-10.19.57-20.73,1.17-29.31,6.16-9.28,5.41-14.61,14.99-19.76,24.26-4.16,7.47-8.45,15.2-14.79,20.69-11.22,9.73-26.69,10.98-38.91,10.98-4.57,0-9.16-.2-13.05-.4-92.73-4.76-188.61-9.69-281.62-26.19-18.31-3.25-35.89-7.07-49.63-17.99-7.87-6.25-13.93-14.53-17.51-23.92-2.64-6.94-3.45-13.37-2.39-19.1,3.17-17.14,21.86-25.61,29.74-28.46,16.58-5.99,34.41-7.43,52.74-8.49,5.45-.31,11.53-.47,18.6-.47,6.18,0,12.56.11,18.73.22,6.24.11,12.69.23,19.02.23,11.29,0,26.06-.31,40.21-2.77,9.11-1.58,16.7-5.94,24.04-10.15,7.95-4.56,16.17-9.28,26.52-10.67,23.77-3.19,49.91-5.02,79.91-5.57,3.76-.07,7.53-.1,11.2-.1m0-1c-3.74,0-7.48.04-11.21.11-26.62.49-53.63,2.03-80.03,5.58-20.23,2.72-31.92,17.58-50.6,20.82-12.8,2.22-26.34,2.75-40.04,2.75-12.59,0-25.32-.45-37.74-.45-6.32,0-12.55.12-18.66.47-17.94,1.03-36.13,2.44-53.03,8.54-13.85,5-27.71,14.74-30.39,29.22-1.22,6.57.06,13.4,2.43,19.64,3.63,9.51,9.85,18.02,17.82,24.35,14.06,11.17,32.4,15.05,50.08,18.19,92.93,16.49,187.49,21.36,281.75,26.2,4.29.22,8.69.41,13.1.41,14.45,0,28.91-1.99,39.56-11.22,14.38-12.47,17.96-35.26,34.4-44.84,19.05-11.09,48.28.03,62.23-17.03,8.03-9.82,6-25.1-1.54-35.3-7.55-10.2-19.32-16.32-30.99-21.28-46.4-19.71-97.03-26.16-147.15-26.16h0Z" style="fill: #0071bc;"/>
    </g>
  </g>
  <g id="Patos">
    <path d="m294.12,332.03c-3.09,2.68-5.59,5.76-8,9-10.75,12.35,12.5,21.13,22.16,24.75.44.16.89.3,1.34.39,12.52,2.56,24.11.36,35.47-5.49,10.18-5.66,7.49-12.85,7.21-23.68-.01-.56-.08-1.13-.2-1.68-4.69-20.87-7.97-41.94-6.8-63.25.32-5.84-4.52-10.66-10.36-10.33-2.16.12-4.24.28-5.85.48-4.5.56-7.82,4.47-7.65,9,1.33,36.17,3.06,30.53-27.32,60.82" style="fill: #ff5d10;"/>
    <path d="m296.33,257.28l-11.17,33.22s-27.35,5.42-37.84,8.05c-10.49,2.63-8.48,5.78-1.72,18.02,6.75,12.24,10.79,18.53,26.08,13.59s21.99-12.04,27.54-22.95c5.55-10.91,12.3-46.12,7.85-50.75-4.45-4.64-10.74.81-10.74.81Z" style="fill: #ff5d10;"/>
    <g>
      <path d="m174.07,43.41c-.68-6.02-3.06-12.14-7.83-15.86-4.87-3.79-11.47-4.55-17.61-3.96-12.42,1.19-22.01,9.34-30.03,18.91-2.81,3.35-7.43,5.3-8.56,9.54-2.87,10.77,3.5,22.76,13.38,27.91s25.97,5.92,37.62-1.46c8.89-5.64,14.71-20.24,13.04-35.07Z" style="fill: #f0fbff;"/>
      <path d="m175.19,43.41c-.8-6.76-3.51-13.61-9.37-17.53-5.94-3.98-13.96-4.25-20.77-2.88-6.67,1.34-12.67,4.79-17.84,9.12-2.69,2.25-5.16,4.74-7.49,7.36-1.11,1.25-2.14,2.59-3.37,3.74-1.15,1.07-2.42,2.01-3.59,3.05-2.43,2.14-3.79,4.52-4.27,7.73s-.28,6.37.52,9.45c1.59,6.15,5.43,11.63,10.52,15.4s11.27,5.43,17.37,6.01c6.73.64,13.69-.25,19.92-2.9s10.48-6.69,13.57-12.39c3.37-6.21,4.99-13.35,5.08-20.39.03-1.92-.08-3.84-.28-5.75-.15-1.42-2.41-1.44-2.25,0,.74,6.86.01,13.85-2.38,20.33-1.93,5.23-5.1,10.48-9.84,13.61-10.02,6.6-24.47,7.24-35.32,2.32-5.44-2.47-9.84-6.78-12.49-12.13-1.26-2.55-2.11-5.35-2.36-8.18s-.19-6.15,1.22-8.59,4.1-4.05,6.16-5.96c2.23-2.06,4.05-4.57,6.18-6.75,4.47-4.56,9.6-8.65,15.56-11.08,6.58-2.68,14.63-3.48,21.39-1,7.37,2.71,10.99,10.03,11.87,17.44.17,1.42,2.42,1.44,2.25,0Z" style="fill: #1a1919;"/>
    </g>
    <g>
      <circle cx="125.57" cy="69.61" r="6.52" style="fill: #1a1919;"/>
      <circle cx="123.94" cy="67.38" r="2.22" style="fill: #f0fbff;"/>
    </g>
    <path d="m296.12,250.9s75.37,28.69,117.23-20.94c41.85-49.63,55.21-125.64,15.37-152.91,0,0-19.23-10.46-18.62,4.66.22,5.46,14.91,8.65,6,21.03-8.91,12.38-64.88,23.82-64.88,23.82l-42.81,21.85-12.28,102.48Z" style="fill: #5e6367;"/>
    <ellipse cx="384.82" cy="180.2" rx="61.68" ry="46.98" transform="translate(100.86 496.3) rotate(-73.16)" style="fill: #b0b0b1;"/>
    <path d="m408.52,96.13s-109.5,19.59-180.43,32.13c-57.7,10.21-26.21,87.37,0,109.91,32.05,27.56,145.14,45.23,180.43-7.86,35.28-53.09-12.94-96.57-12.94-96.57,0,0,20.16-8.54,12.94-37.62Z" style="fill: #84574e;"/>
    <path d="m406.8,170.91s-54.32-59.61-100.71-61.99c-46.39-2.38-48.49,25.65-47.1,52.87,1.4,27.22,50.55,84.06,90.3,73.67s20.01-45.8,20.01-45.8c0,0,28.51-1.67,37.49-18.75Z" style="fill: #b79277;"/>
    <g>
      <path d="m128.67,51.07c13.67-75.42,132.67-68.83,119.15,29.92-2.62,26.77-15.21,39.89-6.82,61.41,8.4,21.52-7.35,41.47-24.67,36.74-37.91-13.75-93.61-79.86-87.66-128.08Z" style="fill: #03a6a6;"/>
      <g style="clip-path: url(#clippath);">
        <path d="m242.57,139.78l18.37,25.72-46.19,37.27-30.4-23.12s18.85-1.02,34.6-16.25c15.75-15.22,23.62-23.62,23.62-23.62Z" style="fill: #f0fbff;"/>
      </g>
    </g>
    <g>
      <path d="m159.44,60.67c-.03,6.06,1.61,12.41,5.92,16.67,4.39,4.34,10.86,5.86,17.02,6,12.47.27,24.96-4.58,34.05-13.14,3.19-3,6-6.5,7.62-10.57,4.12-10.36-9.25-14.86-18.45-21.14s-16.65-17.09-29.09-11.12c-9.5,4.55-16.99,18.37-17.07,33.3Z" style="fill: #f0fbff;"/>
      <path d="m158.31,60.67c0,6.72,1.93,13.92,7.26,18.39s12.83,5.66,19.68,5.38c7.26-.29,14.41-2.25,20.86-5.58s12.48-8.11,16.51-14.15c1.67-2.49,3.21-5.44,3.31-8.5.08-2.39-.86-4.63-2.31-6.49-3.45-4.4-8.94-6.97-13.63-9.78-2.59-1.55-5.06-3.22-7.41-5.11s-4.68-3.93-7.15-5.72c-4.74-3.45-10.24-5.63-16.12-3.99s-10.4,5.93-13.7,10.84c-3.81,5.68-6.06,12.37-6.92,19.13-.24,1.85-.36,3.71-.37,5.58-.01,1.45,2.24,1.45,2.25,0,.07-6.59,1.51-13.21,4.43-19.14,2.43-4.94,5.93-9.68,10.77-12.49,2.53-1.47,5.43-2.39,8.38-2.27,2.55.11,4.96,1.04,7.15,2.3,4.8,2.76,8.68,6.83,13.19,10.01s9.44,5.43,13.81,8.68c3.6,2.68,6.49,6.29,4.9,10.97-2.14,6.31-7.73,11.47-13.09,15.13s-11.95,6.43-18.61,7.64c-7.09,1.29-15.39,1.3-21.83-2.34s-9.08-11.24-9.09-18.49c0-1.45-2.25-1.45-2.25,0Z" style="fill: #1a1919;"/>
    </g>
    <path d="m22.48,125.09l122.82-48.62s19.28-7.72,17.81,4.03c-1.47,11.75-53.56,44.89-93.78,59.44C29.1,154.5,1.77,150.41.34,143.93s.82-10.39,22.14-18.84Z" style="fill: #d98e04;"/>
    <g>
      <circle cx="192.57" cy="71.61" r="6.52" style="fill: #1a1919;"/>
      <circle cx="190.94" cy="69.38" r="2.22" style="fill: #f0fbff;"/>
    </g>
  </g>
</svg>