<?xml version="1.0" encoding="UTF-8"?>
<svg id="Capa_2" data-name="Capa 2" xmlns="http://www.w3.org/2000/svg" xmlns:xlink="http://www.w3.org/1999/xlink" viewBox="0 0 605.11 388">
  <defs>
    <clipPath id="clippath">
      <path d="m139.68,51.07c13.67-75.42,132.67-68.83,119.15,29.92-2.62,26.77-15.21,39.89-6.82,61.41,8.4,21.52-7.35,41.47-24.67,36.74-37.91-13.75-93.61-79.86-87.66-128.08Z" style="fill: #03a6a6;"/>
    </clipPath>
  </defs>
  <g id="Patos">
    <g>
      <g>
        <path d="m185.09,43.41c-.68-6.02-3.06-12.14-7.83-15.86-4.87-3.79-11.47-4.55-17.61-3.96-12.42,1.19-24.25,7.49-32.26,17.05-2.81,3.35-5.2,7.16-6.32,11.39-2.87,10.77,3.5,22.76,13.38,27.91s25.97,5.92,37.62-1.46c8.89-5.64,14.71-20.24,13.04-35.07Z" style="fill: #f0fbff;"/>
        <path d="m186.21,43.41c-.8-6.7-3.45-13.47-9.2-17.42s-13.59-4.2-20.4-3.13c-13.65,2.15-27.23,10.6-34.1,22.77-3.3,5.86-4.16,12.55-2.15,19,1.87,6,5.85,11.31,11.06,14.83s11.36,5.02,17.42,5.47c6.7.49,13.56-.54,19.71-3.29,5.71-2.56,10-6.74,12.95-12.25,3.31-6.17,4.9-13.25,5-20.23.03-1.92-.08-3.84-.28-5.75-.15-1.42-2.41-1.44-2.25,0,.73,6.73.04,13.58-2.25,19.97-1.89,5.27-5.01,10.59-9.72,13.8-9.79,6.67-23.83,7.29-34.65,2.89s-18.41-16.59-15.09-28.13c1.87-6.5,6.68-12.05,11.76-16.33s10.6-7.2,16.68-9.07c6.87-2.11,14.91-3.1,21.76-.42,7.15,2.8,10.64,10.05,11.5,17.3.17,1.42,2.42,1.44,2.25,0Z" style="fill: #1a1919;"/>
      </g>
      <path d="m154.71,55.08c-1.12.19-2.24-.45-2.62-1.56-.12-.34-3.14-8.51-10.73-6.83-3.29.73-5.65,2.28-7.01,4.61-1.04,1.78-1.13,3.41-1.13,3.43-.03,1.31-1.12,2.33-2.43,2.3-1.31-.03-2.34-1.13-2.31-2.44.09-3.45,2.69-10.5,11.86-12.53,4.88-1.08,9.27.33,12.68,4.09,2.44,2.69,3.51,5.68,3.55,5.8.43,1.24-.22,2.59-1.45,3.02-.13.05-.27.08-.4.1Z" style="fill: #1a1919;"/>
      <path d="m331.54,264.97s79.57,13.16,110.74-43.79c31.17-56.95,29.17-134.1-15.28-152.92,0,0-20.92-6.43-17.33,8.26,1.3,5.31,16.33,5.52,10.06,19.42-6.28,13.9-58.86,36.23-58.86,36.23l-37.62,29.91,8.3,102.88Z" style="fill: #5e6367;"/>
      <ellipse cx="395.84" cy="180.2" rx="61.68" ry="46.98" transform="translate(108.68 506.85) rotate(-73.16)" style="fill: #b0b0b1;"/>
      <path d="m419.54,96.13s-109.5,19.59-180.43,32.13c-57.7,10.21-26.21,87.37,0,109.91,32.05,27.56,145.14,45.23,180.43-7.86,35.28-53.09-12.94-96.57-12.94-96.57,0,0,20.16-8.54,12.94-37.62Z" style="fill: #84574e;"/>
      <path d="m375.49,61.37s-77.52,22.23-100.24,62.75c-22.72,40.52,1.47,54.84,26.48,65.67,25.01,10.82,97.76-8.01,106.09-48.24,8.32-40.23-32.17-38.25-32.17-38.25,0,0,11.16-26.29-.17-41.92Z" style="fill: #b79277;"/>
      <g>
        <path d="m139.68,51.07c13.67-75.42,132.67-68.83,119.15,29.92-2.62,26.77-15.21,39.89-6.82,61.41,8.4,21.52-7.35,41.47-24.67,36.74-37.91-13.75-93.61-79.86-87.66-128.08Z" style="fill: #03a6a6;"/>
        <g style="clip-path: url(#clippath);">
          <path d="m253.59,139.78l18.37,25.72-46.19,37.27-30.4-23.12s18.85-1.02,34.6-16.25c15.75-15.22,23.62-23.62,23.62-23.62Z" style="fill: #f0fbff;"/>
        </g>
      </g>
      <g>
        <path d="m170.45,60.67c-.03,6.06,1.61,12.41,5.92,16.67,4.39,4.34,10.86,5.86,17.02,6,12.47.27,24.96-4.58,34.05-13.14,3.19-3,6-6.5,7.62-10.57,4.12-10.36-.8-23.01-10-29.29-9.2-6.27-25.09-8.94-37.53-2.98-9.5,4.55-16.99,18.37-17.07,33.3Z" style="fill: #f0fbff;"/>
        <path d="m169.33,60.67c0,6.65,1.89,13.78,7.11,18.26s12.78,5.76,19.62,5.51c14.08-.51,28.83-7.41,37.11-19.06,3.86-5.43,5.27-11.94,4-18.48-1.18-6.1-4.57-11.86-9.33-15.85s-11-6.4-17.14-7.47c-6.87-1.2-14.12-.89-20.7,1.53-12.37,4.54-18.78,17.77-20.32,30.17-.22,1.79-.33,3.58-.35,5.38-.01,1.45,2.24,1.45,2.25,0,.07-6.59,1.51-13.21,4.43-19.14,2.39-4.85,5.81-9.51,10.51-12.34,5.42-3.26,12.21-4.28,18.45-3.99,5.97.27,12.03,1.8,17.27,4.72,9.97,5.56,16.16,18.36,11.74,29.41-2.51,6.28-8.01,11.34-13.55,14.98s-11.8,6.13-18.33,7.26c-6.98,1.21-15.1,1.17-21.43-2.41-6.64-3.76-9.08-11.24-9.09-18.49,0-1.45-2.25-1.45-2.25,0Z" style="fill: #1a1919;"/>
      </g>
      <path d="m26.35,89.87l131.32-14.23s20.64-2.32,16.1,8.62c-4.54,10.94-63.56,29.04-106.21,32.38C24.92,119.98-.34,108.77,0,102.15s3.55-9.8,26.35-12.28Z" style="fill: #d98e04;"/>
      <path d="m216.27,63.64c-1.46,0-2.75-1.05-3.01-2.54-.08-.46-2.2-11.5-12.22-10.97-4.34.23-7.68,1.7-9.91,4.39-1.71,2.05-2.16,4.11-2.17,4.13-.32,1.66-1.93,2.73-3.59,2.41-1.66-.32-2.74-1.94-2.42-3.6.85-4.37,5.65-12.8,17.77-13.44,6.45-.34,11.73,2.39,15.29,7.9,2.54,3.94,3.27,7.97,3.3,8.14.29,1.67-.83,3.25-2.49,3.54-.18.03-.35.05-.53.05Z" style="fill: #1a1919;"/>
    </g>
    <g style="opacity: .3;">
      <path d="m308.11,387.64c-163.57,0-296.64-67.26-296.64-149.94,0-8.21,1.35-16.5,4.01-24.62,3.22-.35,6.46-.63,9.66-.83,17.02-1.27,33.65-2.4,50.1-2.4,18.15,0,33.79,1.45,47.8,4.42,52.47,10.54,109.32,20.29,169.53,20.29,8.22,0,16.48-.18,24.56-.54,7.39-.47,14.71-.97,23.03-2.03,24.65-2.56,46.51-8.05,67.64-13.35,12.35-3.1,25.13-6.31,38.38-8.92,8.86-1.71,18.81-2.54,30.4-2.54,12.6,0,25.47.98,37.5,2.04,9.63.65,19.68,1.7,30.32,2.81,18.23,1.9,37.08,3.87,54.89,3.87.78,0,1.55,0,2.33-.01,2.08,7.21,3.14,14.55,3.14,21.83,0,82.68-133.07,149.94-296.64,149.94Z" style="fill: #29abe2;"/>
      <path d="m476.58,207.53c12.59,0,25.44.98,37.48,2.04,9.62.65,19.66,1.7,30.3,2.81,18.24,1.9,37.1,3.87,54.93,3.87.69,0,1.38,0,2.07,0,2.02,7.09,3.05,14.31,3.05,21.47,0,20.12-7.8,39.65-23.17,58.05-14.9,17.82-36.24,33.84-63.43,47.6-56,28.34-130.47,43.94-209.69,43.94s-153.69-15.61-209.69-43.94c-27.19-13.76-48.53-29.77-63.42-47.6-15.38-18.4-23.17-37.93-23.17-58.05,0-8.1,1.32-16.27,3.92-24.3,3.13-.34,6.29-.61,9.42-.8,17.01-1.27,33.63-2.4,50.07-2.4,18.12,0,33.74,1.44,47.74,4.41,52.49,10.54,109.36,20.29,169.6,20.29,8.22,0,16.49-.18,24.58-.54,7.39-.47,14.71-.97,23.03-2.03,24.68-2.56,46.55-8.05,67.7-13.36,12.35-3.1,25.12-6.31,38.36-8.91,8.84-1.7,18.77-2.53,30.34-2.53m0-.71c-10.53,0-20.82.68-30.47,2.55-36,7.08-67,18.22-106,22.27-8,1.01-15,1.52-23,2.02-8.25.37-16.43.54-24.54.54-58.75,0-114.1-9.16-169.46-20.28-15.5-3.29-31.5-4.43-47.88-4.43-16.38,0-33.12,1.14-50.12,2.4-3.21.2-6.57.49-9.9.86-2.68,8.12-4.1,16.45-4.1,24.95,0,83.01,132.97,150.3,297,150.3s297-67.29,297-150.3c0-7.54-1.11-14.94-3.23-22.19-.86,0-1.73.01-2.6.01-28.03,0-58.83-4.9-85.17-6.67-12.43-1.09-25.15-2.04-37.53-2.04h0Z" style="fill: #0071bc;"/>
    </g>
    <g style="opacity: .3;">
      <path d="m306.11,386.63c-163.57,0-296.64-67.26-296.64-149.94,0-13.65,3.65-27.19,10.83-40.25,31.38,1.53,63.94,9.17,85.72,14.79,19.92,5.04,41.71,7.7,63.02,7.7,12.24,0,24.06-.89,35.12-2.64,13.1-1.66,25.16-5.12,36.83-8.47,6.21-1.78,12.63-3.62,19.2-5.2,21.31-5.56,44.16-8.26,69.88-8.26,43.4,0,87.63,7.86,128.97,16.36,13,2.53,27.39,3.87,41.61,3.87,15.86,0,30.92-1.69,43.55-4.88,16.09-4.21,30.31-10.86,43.47-20.33,10.01,15.22,15.09,31.14,15.09,47.31,0,82.68-133.07,149.94-296.64,149.94Z" style="fill: #29abe2;"/>
      <path d="m587.57,189.88c9.84,15.07,14.83,30.81,14.83,46.8,0,20.12-7.8,39.65-23.17,58.05-14.9,17.82-36.24,33.84-63.43,47.6-56,28.34-130.47,43.94-209.69,43.94s-153.69-15.61-209.69-43.94c-27.19-13.76-48.53-29.77-63.42-47.6-15.38-18.4-23.17-37.93-23.17-58.05,0-13.52,3.59-26.94,10.68-39.88,31.28,1.55,63.71,9.16,85.43,14.77,19.95,5.05,41.77,7.72,63.11,7.72,12.26,0,24.1-.89,35.16-2.64,13.13-1.66,25.21-5.13,36.89-8.48,6.21-1.78,12.62-3.62,19.2-5.2,21.27-5.55,44.1-8.25,69.78-8.25,43.37,0,87.58,7.86,128.9,16.35,13.02,2.53,27.43,3.87,41.67,3.87,15.89,0,30.98-1.69,43.64-4.9,16-4.19,30.17-10.79,43.28-20.17m.19-1.01c-11.53,8.34-25.41,15.71-43.65,20.49-13.28,3.36-28.39,4.87-43.46,4.87s-28.82-1.39-41.54-3.86c-41.35-8.5-85.62-16.37-129.04-16.37-23.79,0-47.31,2.36-69.96,8.27-19,4.55-36,11.13-56,13.66-11.34,1.79-23.17,2.63-35.07,2.63-21.68,0-43.56-2.79-62.93-7.69-26.25-6.77-56.74-13.41-86.02-14.81-7.15,12.92-10.98,26.54-10.98,40.62,0,83.01,132.97,150.3,297,150.3s297-67.29,297-150.3c0-16.72-5.4-32.79-15.35-47.82h0Z" style="fill: #0071bc;"/>
    </g>
    <g style="opacity: .3;">
      <path d="m308.11,387.64c-163.57,0-296.64-67.26-296.64-149.94,0-20.78,8.28-40.92,24.62-59.85,3.4-.43,6.78-.78,10.05-1.03,10.83-.86,22.07-1.29,33.41-1.29,52.54,0,103.38,9.13,150.49,19,54.4,11.3,100.15,16.57,143.99,16.57,10.12,0,20.25-.29,30.1-.88,61.24-4.13,106.87-26.15,147.13-45.58,3.24-1.64,6.77-3.22,10.49-4.7,28.13,23.39,43,50.27,43,77.76,0,82.68-133.07,149.94-296.64,149.94Z" style="fill: #29abe2;"/>
      <path d="m561.69,160.35c27.94,23.29,42.71,50.03,42.71,77.35,0,20.12-7.8,39.65-23.17,58.05-14.9,17.82-36.24,33.84-63.43,47.6-56,28.34-130.47,43.94-209.69,43.94s-153.69-15.61-209.69-43.94c-27.19-13.76-48.53-29.77-63.42-47.6-15.38-18.4-23.17-37.93-23.17-58.05s8.22-40.68,24.44-59.52c3.33-.42,6.66-.76,9.9-1.01,10.82-.86,22.05-1.29,33.38-1.29,52.51,0,103.33,9.13,150.42,18.99,54.42,11.31,100.2,16.58,144.06,16.58,10.13,0,20.26-.3,30.13-.88,61.3-4.14,106.97-26.17,147.27-45.62,3.17-1.6,6.62-3.15,10.26-4.61m.13-.82c-3.75,1.49-7.33,3.08-10.71,4.79-43,20.75-87,41.5-147,45.55-10.08.6-20.12.88-30.08.88-49.36,0-97.32-6.88-143.92-16.56-47.84-10.02-98.41-19-150.57-19-11.08,0-22.22.4-33.43,1.29-3.47.27-6.86.62-10.21,1.05-15.93,18.43-24.79,38.78-24.79,60.19,0,83.01,132.97,150.3,297,150.3s297-67.29,297-150.3c0-28.63-15.83-55.39-43.29-78.17h0Z" style="fill: #0071bc;"/>
    </g>
  </g>
</svg>