<?xml version="1.0" encoding="UTF-8"?>
<svg id="Capa_2" data-name="Capa 2" xmlns="http://www.w3.org/2000/svg" xmlns:xlink="http://www.w3.org/1999/xlink" viewBox="0 0 452.6 264.59">
  <defs>
    <clipPath id="clippath">
      <path d="m128.67,51.07c13.67-75.42,132.67-68.83,119.15,29.92-2.62,26.77-15.21,39.89-6.82,61.41,8.4,21.52-7.35,41.47-24.67,36.74-37.91-13.75-93.61-79.86-87.66-128.08Z" style="fill: #03a6a6;"/>
    </clipPath>
  </defs>
  <g id="Patos">
    <g>
      <g>
        <path d="m174.07,43.41c-.68-6.02-3.06-12.14-7.83-15.86-4.87-3.79-11.47-4.55-17.61-3.96-12.42,1.19-22.01,9.34-30.03,18.91-2.81,3.35-7.43,5.3-8.56,9.54-2.87,10.77,3.5,22.76,13.38,27.91s25.97,5.92,37.62-1.46c8.89-5.64,14.71-20.24,13.04-35.07Z" style="fill: #f0fbff;"/>
        <path d="m175.19,43.41c-.8-6.76-3.51-13.61-9.37-17.53s-13.96-4.25-20.77-2.88c-6.67,1.34-12.67,4.79-17.84,9.12-2.69,2.25-5.16,4.74-7.49,7.36-1.11,1.25-2.14,2.59-3.37,3.74-1.15,1.07-2.42,2.01-3.59,3.05-2.43,2.14-3.79,4.52-4.27,7.73s-.28,6.37.52,9.45c1.59,6.15,5.43,11.63,10.52,15.4s11.27,5.43,17.37,6.01c6.73.64,13.69-.25,19.92-2.9s10.48-6.69,13.57-12.39c3.37-6.21,4.99-13.35,5.08-20.39.03-1.92-.08-3.84-.28-5.75-.15-1.42-2.41-1.44-2.25,0,.74,6.86.01,13.85-2.38,20.33-1.93,5.23-5.1,10.48-9.84,13.61-10.02,6.6-24.47,7.24-35.32,2.32-5.44-2.47-9.84-6.78-12.49-12.13-1.26-2.55-2.11-5.35-2.36-8.18s-.19-6.15,1.22-8.59,4.1-4.05,6.16-5.96c2.23-2.06,4.05-4.57,6.18-6.75,4.47-4.56,9.6-8.65,15.56-11.08,6.58-2.68,14.63-3.48,21.39-1,7.37,2.71,10.99,10.03,11.87,17.44.17,1.42,2.42,1.44,2.25,0Z" style="fill: #1a1919;"/>
      </g>
      <g>
        <circle cx="125.57" cy="69.61" r="6.52" style="fill: #1a1919;"/>
        <circle cx="123.94" cy="67.38" r="2.22" style="fill: #f0fbff;"/>
      </g>
      <path d="m296.12,250.9s75.37,28.69,117.23-20.94c41.85-49.63,55.21-125.64,15.37-152.91,0,0-19.23-10.46-18.62,4.66.22,5.46,14.91,8.65,6,21.03-8.91,12.38-64.88,23.82-64.88,23.82l-42.81,21.85-12.28,102.48Z" style="fill: #5e6367;"/>
      <ellipse cx="384.82" cy="180.2" rx="61.68" ry="46.98" transform="translate(100.86 496.3) rotate(-73.16)" style="fill: #b0b0b1;"/>
      <path d="m408.52,96.13s-109.5,19.59-180.43,32.13c-57.7,10.21-26.21,87.37,0,109.91,32.05,27.56,145.14,45.23,180.43-7.86,35.28-53.09-12.94-96.57-12.94-96.57,0,0,20.16-8.54,12.94-37.62Z" style="fill: #84574e;"/>
      <path d="m406.8,170.91s-54.32-59.61-100.71-61.99c-46.39-2.38-48.49,25.65-47.1,52.87,1.4,27.22,50.55,84.06,90.3,73.67s20.01-45.8,20.01-45.8c0,0,28.51-1.67,37.49-18.75Z" style="fill: #b79277;"/>
      <g>
        <path d="m128.67,51.07c13.67-75.42,132.67-68.83,119.15,29.92-2.62,26.77-15.21,39.89-6.82,61.41,8.4,21.52-7.35,41.47-24.67,36.74-37.91-13.75-93.61-79.86-87.66-128.08Z" style="fill: #03a6a6;"/>
        <g style="clip-path: url(#clippath);">
          <path d="m242.57,139.78l18.37,25.72-46.19,37.27-30.4-23.12s18.85-1.02,34.6-16.25c15.75-15.22,23.62-23.62,23.62-23.62Z" style="fill: #f0fbff;"/>
        </g>
      </g>
      <g>
        <path d="m159.44,60.67c-.03,6.06,1.61,12.41,5.92,16.67,4.39,4.34,10.86,5.86,17.02,6,12.47.27,24.96-4.58,34.05-13.14,3.19-3,6-6.5,7.62-10.57,4.12-10.36-9.25-14.86-18.45-21.14s-16.65-17.09-29.09-11.12c-9.5,4.55-16.99,18.37-17.07,33.3Z" style="fill: #f0fbff;"/>
        <path d="m158.31,60.67c0,6.72,1.93,13.92,7.26,18.39s12.83,5.66,19.68,5.38c7.26-.29,14.41-2.25,20.86-5.58s12.48-8.11,16.51-14.15c1.67-2.49,3.21-5.44,3.31-8.5.08-2.39-.86-4.63-2.31-6.49-3.45-4.4-8.94-6.97-13.63-9.78-2.59-1.55-5.06-3.22-7.41-5.11s-4.68-3.93-7.15-5.72c-4.74-3.45-10.24-5.63-16.12-3.99s-10.4,5.93-13.7,10.84c-3.81,5.68-6.06,12.37-6.92,19.13-.24,1.85-.36,3.71-.37,5.58-.01,1.45,2.24,1.45,2.25,0,.07-6.59,1.51-13.21,4.43-19.14,2.43-4.94,5.93-9.68,10.77-12.49,2.53-1.47,5.43-2.39,8.38-2.27,2.55.11,4.96,1.04,7.15,2.3,4.8,2.76,8.68,6.83,13.19,10.01s9.44,5.43,13.81,8.68c3.6,2.68,6.49,6.29,4.9,10.97-2.14,6.31-7.73,11.47-13.09,15.13s-11.95,6.43-18.61,7.64c-7.09,1.29-15.39,1.3-21.83-2.34s-9.08-11.24-9.09-18.49c0-1.45-2.25-1.45-2.25,0Z" style="fill: #1a1919;"/>
      </g>
      <path d="m22.48,125.09l122.82-48.62s19.28-7.72,17.81,4.03c-1.47,11.75-53.56,44.89-93.78,59.44C29.1,154.5,1.77,150.41.34,143.93s.82-10.39,22.14-18.84Z" style="fill: #d98e04;"/>
      <g>
        <circle cx="192.57" cy="71.61" r="6.52" style="fill: #1a1919;"/>
        <circle cx="190.94" cy="69.38" r="2.22" style="fill: #f0fbff;"/>
      </g>
    </g>
  </g>
</svg>