<?xml version="1.0" encoding="UTF-8"?>
<svg id="Capa_2" data-name="Capa 2" xmlns="http://www.w3.org/2000/svg" xmlns:xlink="http://www.w3.org/1999/xlink" viewBox="0 0 596 500.97">
  <defs>
    <clipPath id="clippath">
      <path d="m143.57,55.04c13.67-75.42,132.67-68.83,119.15,29.92-2.62,26.77-15.21,39.89-6.82,61.41,8.4,21.52-7.35,41.47-24.67,36.74-37.91-13.75-93.61-79.86-87.66-128.08Z" style="fill: #03a6a6;"/>
    </clipPath>
  </defs>
  <g id="Patos">
    <g>
      <g>
        <path d="m217.32,7.08c-5.27,2.99-9.95,7.59-11.49,13.44-1.57,5.97.34,12.34,3.29,17.75,5.98,10.94,16.42,19.34,28.37,22.95,4.19,1.26,8.62,1.96,12.96,1.33,11.03-1.6,19.55-12.18,20.39-23.28.85-11.1-4.77-26.21-16.15-34.01-8.68-5.96-24.39-5.56-37.37,1.82Z" style="fill: #f0fbff;"/>
        <path d="m216.75,6.1c-5.79,3.33-11.05,8.57-12.29,15.37-1.35,7.41,1.8,14.89,5.86,20.94,3.8,5.66,8.78,10.49,14.51,14.17,6.06,3.9,13.25,6.76,20.49,7.25,13.75.93,25.07-10.42,26.56-23.69.66-5.81-.51-11.88-2.58-17.31-2.27-5.96-5.79-11.53-10.55-15.81S248.64.68,242.43.14c-7-.6-14.17.78-20.62,3.49-1.74.73-3.42,1.55-5.06,2.48-1.26.71-.13,2.65,1.14,1.94,5.96-3.35,12.69-5.43,19.54-5.75,5.54-.26,11.44.56,16.19,3.6,9.61,6.14,15.55,18.23,16.13,29.44s-6.58,23.35-18.21,25.88c-7.01,1.52-14.66-.8-20.93-3.92-5.62-2.8-10.66-6.68-14.8-11.4-4.84-5.52-9.2-12.78-9.42-20.31s5.05-13.82,11.49-17.53c1.25-.72.12-2.67-1.14-1.94Z" style="fill: #1a1919;"/>
      </g>
      <g>
        <circle cx="255.5" cy="36.55" r="11.55" style="fill: #1a1919;"/>
        <circle cx="252.61" cy="32.61" r="3.94" style="fill: #f0fbff;"/>
      </g>
      <path d="m331.64,70.75s-72.83,34.62-88.61,78.31c-15.78,43.69,10.43,53.86,36.88,60.44,26.44,6.58,95.13-23.91,96.76-64.96,1.63-41.05-37.99-32.47-37.99-32.47,0,0,6.7-27.76-7.03-41.33Z" style="fill: #91745e;"/>
      <path d="m335.42,268.94s79.57,13.16,110.74-43.79c31.17-56.95,29.17-134.1-15.28-152.92,0,0-20.92-6.43-17.33,8.26,1.3,5.31,16.33,5.52,10.06,19.42-6.28,13.9-58.86,36.23-58.86,36.23l-37.62,29.91,8.3,102.88Z" style="fill: #5e6367;"/>
      <ellipse cx="399.73" cy="184.16" rx="61.68" ry="46.98" transform="translate(107.65 513.39) rotate(-73.16)" style="fill: #b0b0b1;"/>
      <path d="m423.43,100.09s-109.5,19.59-180.43,32.13c-57.7,10.21-26.21,87.37,0,109.91,32.05,27.56,145.14,45.23,180.43-7.86,35.28-53.09-12.94-96.57-12.94-96.57,0,0,20.16-8.54,12.94-37.62Z" style="fill: #84574e;"/>
      <path d="m379.38,65.34s-77.52,22.23-100.24,62.75c-22.72,40.52,1.47,54.84,26.48,65.67,25.01,10.82,97.76-8.01,106.09-48.24,8.32-40.23-32.17-38.25-32.17-38.25,0,0,11.16-26.29-.17-41.92Z" style="fill: #b79277;"/>
      <g>
        <path d="m143.57,55.04c13.67-75.42,132.67-68.83,119.15,29.92-2.62,26.77-15.21,39.89-6.82,61.41,8.4,21.52-7.35,41.47-24.67,36.74-37.91-13.75-93.61-79.86-87.66-128.08Z" style="fill: #03a6a6;"/>
        <g style="clip-path: url(#clippath);">
          <path d="m257.48,143.75l18.37,25.72-46.19,37.27-30.4-23.12s18.85-1.02,34.6-16.25c15.75-15.22,23.62-23.62,23.62-23.62Z" style="fill: #f0fbff;"/>
        </g>
      </g>
      <g>
        <path d="m235.42,52.64c.03,6.06-1.61,12.41-5.92,16.67-4.39,4.34-10.86,5.86-17.02,6-12.47.27-9.45-8.04-20.98-12.84-12-5-16,0-20.69-10.86-4.42-10.23.8-23.01,10-29.29,9.2-6.27,25.09-8.94,37.53-2.98,9.5,4.55,16.99,18.37,17.07,33.3Z" style="fill: #f0fbff;"/>
        <path d="m234.29,52.64c0,7.25-2.45,14.74-9.09,18.49-3.2,1.81-6.91,2.66-10.55,2.94-2.92.23-6.19.32-8.85-1.12-1.87-1.02-3.18-2.71-4.5-4.33-1.64-2-3.42-3.82-5.6-5.24-4.8-3.12-10.31-4-15.81-5-1.62-.3-3.25-.71-4.53-1.8-1.89-1.6-3.09-4.14-3.91-6.42-2.2-6.18-.91-13.05,2.34-18.61,7.02-12.02,23.06-16.28,36.11-13.78,3.37.65,6.79,1.73,9.72,3.55,2.56,1.59,4.75,3.77,6.56,6.16,4.27,5.62,6.81,12.56,7.73,19.53.25,1.87.36,3.75.38,5.63.01,1.45,2.26,1.45,2.25,0-.14-14.05-6.57-30.37-20.67-35.55-7.29-2.68-15.44-2.8-22.96-1.08-6.8,1.56-13.42,4.74-18.01,10.11s-7.26,12.17-6.76,19.1c.25,3.38,1.3,6.61,2.97,9.55,1.1,1.93,2.57,3.72,4.61,4.7,1.84.88,3.87,1.13,5.86,1.45,2.98.47,5.89,1.16,8.71,2.26,3.09,1.2,5.79,2.95,8.02,5.4,1.58,1.74,2.91,3.75,4.76,5.23,2.24,1.79,4.99,2.48,7.82,2.6,3.81.16,7.81-.35,11.42-1.58s6.97-3.29,9.37-6.32,3.72-6.49,4.36-10.16c.33-1.89.48-3.81.48-5.73,0-1.45-2.25-1.45-2.25,0Z" style="fill: #1a1919;"/>
      </g>
      <path d="m329.14,40.53s-89.14,37.43-137.14,24.81c-11.13-2.92-20.01,5.55-11.72,14,8.29,8.45,78.91,17.43,119.72,4.61,40.81-12.82,60.96-35.86,58.16-41.87-2.79-6.01-6.96-7.76-29.03-1.56Z" style="fill: #d98e04;"/>
      <g>
        <circle cx="210.5" cy="53.55" r="11.55" style="fill: #1a1919;"/>
        <circle cx="207.61" cy="49.61" r="3.94" style="fill: #f0fbff;"/>
      </g>
    </g>
    <g style="opacity: .3;">
      <path d="m299,500.51c-79.23,0-153.71-25.52-209.72-71.86C33.29,382.34,2.46,320.77,2.46,255.28c0-13.48,1.35-27.06,4.03-40.4,3.18-.56,6.4-1.01,9.56-1.34,17.01-2.07,33.64-3.93,50.08-3.93,18.12,0,33.73,2.36,47.73,7.21,52.49,17.23,109.37,33.17,169.61,33.17,8.22,0,16.49-.3,24.57-.89,7.4-.76,14.73-1.59,23.06-3.32,24.67-4.19,46.54-13.16,67.68-21.84,12.35-5.07,25.12-10.31,38.37-14.57,8.84-2.79,18.76-4.14,30.33-4.14,12.58,0,25.44,1.6,37.46,3.33,9.63,1.06,19.67,2.78,30.31,4.59,18.24,3.11,37.11,6.33,54.93,6.33.74,0,1.48,0,2.22-.02,2.09,11.82,3.15,23.87,3.15,35.8,0,65.49-30.83,127.06-86.82,173.38-56.01,46.34-130.5,71.86-209.72,71.86Z" style="fill: #29abe2;"/>
      <path d="m467.47,205.7c12.56,0,25.39,1.6,37.43,3.33,9.6,1.06,19.64,2.77,30.27,4.58,18.26,3.11,37.14,6.33,55.01,6.33.61,0,1.23,0,1.84-.01,2.04,11.68,3.08,23.56,3.08,35.34,0,33.02-7.82,65.06-23.24,95.22-14.9,29.15-36.24,55.32-63.42,77.81-27.19,22.49-58.86,40.16-94.13,52.5-36.52,12.78-75.31,19.26-115.31,19.26s-78.79-6.48-115.31-19.26c-35.26-12.34-66.93-30-94.13-52.5-27.18-22.48-48.52-48.66-63.42-77.81-15.42-30.16-23.24-62.2-23.24-95.22,0-13.34,1.33-26.8,3.96-40,3.07-.54,6.17-.97,9.24-1.28,16.99-2.07,33.6-3.92,50.02-3.92,18.07,0,33.63,2.35,47.59,7.19,52.52,17.24,109.44,33.2,169.74,33.2,8.23,0,16.51-.3,24.63-.89,7.4-.77,14.74-1.6,23.06-3.32,24.73-4.2,46.62-13.18,67.79-21.87,12.34-5.07,25.11-10.3,38.33-14.56,8.8-2.77,18.67-4.12,30.2-4.12m0-.91c-10.53,0-20.82,1.12-30.47,4.16-36,11.58-67,29.78-106,36.4-8,1.65-15,2.48-23,3.31-8.25.6-16.43.89-24.54.89-58.75,0-114.1-14.98-169.46-33.15-15.5-5.38-31.5-7.24-47.88-7.24s-33.12,1.86-50.12,3.93c-3.21.33-6.57.8-9.9,1.4-2.68,13.27-4.1,26.89-4.1,40.79,0,135.69,132.97,245.69,297,245.69s297-110,297-245.69c0-12.32-1.11-24.43-3.23-36.27-.86.02-1.73.02-2.6.02-28.03,0-58.83-8-85.17-10.91-12.43-1.79-25.15-3.33-37.53-3.33h0Z" style="fill: #0071bc;"/>
    </g>
    <g style="opacity: .3;">
      <path d="m297,498.86c-79.23,0-153.71-25.52-209.72-71.86C31.29,380.68.46,319.11.46,253.62c0-22.36,3.65-44.53,10.85-65.91,31.31,2.52,63.78,14.98,85.52,24.14,19.95,8.25,41.77,12.61,63.11,12.61,12.26,0,24.1-1.45,35.18-4.32,13.11-2.71,25.19-8.38,36.87-13.86,6.21-2.91,12.62-5.92,19.19-8.49,21.28-9.08,44.11-13.49,69.8-13.49,43.37,0,87.58,12.85,128.89,26.73,13.03,4.14,27.44,6.33,41.68,6.33,15.9,0,30.99-2.77,43.64-8,16.03-6.86,30.21-17.67,43.33-33.04,9.98,24.87,15.04,50.87,15.04,77.29,0,65.49-30.83,127.06-86.82,173.38-56.01,46.34-130.5,71.86-209.72,71.86Z" style="fill: #29abe2;"/>
      <path d="m578.36,177.2c9.77,24.6,14.73,50.31,14.73,76.43,0,33.02-7.82,65.06-23.24,95.22-14.9,29.15-36.24,55.32-63.42,77.81-27.19,22.49-58.86,40.16-94.13,52.5-36.52,12.78-75.31,19.26-115.31,19.26s-78.79-6.48-115.31-19.26c-35.26-12.34-66.93-30-94.13-52.5-27.18-22.48-48.52-48.66-63.42-77.81C8.73,318.68.91,286.65.91,253.62c0-22.19,3.6-44.2,10.71-65.43,31.13,2.58,63.4,14.96,85.03,24.08,20,8.27,41.88,12.65,63.28,12.65,12.3,0,24.18-1.46,35.25-4.32,13.18-2.73,25.28-8.4,36.99-13.9,6.2-2.91,12.61-5.92,19.19-8.49,21.22-9.05,43.98-13.45,69.6-13.45,43.31,0,87.47,12.84,128.76,26.71,13.06,4.16,27.52,6.35,41.81,6.35,15.95,0,31.1-2.78,43.82-8.04,15.9-6.8,29.98-17.47,43-32.59m.28-1.73c-11.53,13.63-25.41,25.69-43.65,33.49-13.28,5.49-28.39,7.97-43.46,7.97s-28.82-2.26-41.54-6.31c-41.35-13.9-85.62-26.76-129.04-26.76-23.79,0-47.31,3.86-69.96,13.52-19,7.45-36,18.2-56,22.34-11.34,2.93-23.17,4.3-35.07,4.3-21.68,0-43.56-4.56-62.93-12.58-26.25-11.07-56.74-21.92-86.02-24.21C3.83,208.35,0,230.62,0,253.62c0,135.69,132.97,245.69,297,245.69s297-110,297-245.69c0-27.33-5.4-53.61-15.35-78.16h0Z" style="fill: #0071bc;"/>
    </g>
    <g style="opacity: .3;">
      <path d="m299,500.51c-79.23,0-153.71-25.52-209.72-71.86C33.29,382.34,2.46,320.77,2.46,255.28c0-34.03,8.29-67,24.64-97.98,3.36-.69,6.71-1.25,9.96-1.66,10.82-1.4,22.05-2.11,33.38-2.11,52.5,0,103.32,14.92,150.42,31.04,54.42,18.49,100.2,27.1,144.06,27.1,10.13,0,20.27-.48,30.13-1.43,61.3-6.76,106.95-42.77,147.24-74.55,3.19-2.64,6.66-5.18,10.32-7.58,28.1,38.24,42.94,82.2,42.94,127.17,0,65.49-30.83,127.06-86.82,173.38-56.01,46.34-130.5,71.86-209.72,71.86Z" style="fill: #29abe2;"/>
      <path d="m552.49,128.73c27.87,38.08,42.6,81.82,42.6,126.55,0,33.02-7.82,65.06-23.24,95.22-14.9,29.15-36.24,55.32-63.42,77.81-27.19,22.49-58.86,40.16-94.13,52.5-36.52,12.78-75.31,19.26-115.31,19.26s-78.79-6.48-115.31-19.26c-35.26-12.34-66.93-30-94.13-52.5-27.18-22.48-48.52-48.66-63.42-77.81-15.42-30.16-23.24-62.2-23.24-95.22s8.24-66.72,24.49-97.58c3.28-.67,6.54-1.21,9.72-1.61,10.8-1.4,22.01-2.1,33.32-2.1,52.44,0,103.21,14.91,150.27,31.02,54.47,18.51,100.29,27.12,144.21,27.12,10.14,0,20.29-.48,30.18-1.44,61.42-6.77,107.13-42.83,147.48-74.65,3.07-2.54,6.4-4.99,9.91-7.3m.22-1.23c-3.75,2.43-7.33,5.04-10.71,7.83-43,33.92-87,67.83-147,74.45-10.08.97-20.12,1.43-30.08,1.43-49.36,0-97.32-11.25-143.92-27.08-47.84-16.38-98.41-31.06-150.57-31.06-11.08,0-22.22.66-33.43,2.11-3.47.43-6.86,1.01-10.21,1.71-15.93,30.13-24.79,63.4-24.79,98.38,0,135.69,132.97,245.69,297,245.69s297-110,297-245.69c0-46.8-15.83-90.55-43.29-127.78h0Z" style="fill: #0071bc;"/>
    </g>
  </g>
</svg>