<?xml version="1.0" encoding="UTF-8"?>
<svg id="Capa_2" data-name="Capa 2" xmlns="http://www.w3.org/2000/svg" xmlns:xlink="http://www.w3.org/1999/xlink" viewBox="0 0 463.36 266.29">
  <defs>
    <clipPath id="clippath">
      <path d="m139.68,51.07c13.67-75.42,132.67-68.83,119.15,29.92-2.62,26.77-15.21,39.89-6.82,61.41,8.4,21.52-7.35,41.47-24.67,36.74-37.91-13.75-93.61-79.86-87.66-128.08Z" style="fill: #03a6a6;"/>
    </clipPath>
  </defs>
  <g id="Patos">
    <g>
      <g>
        <path d="m185.09,43.41c-.68-6.02-3.06-12.14-7.83-15.86-4.87-3.79-11.47-4.55-17.61-3.96-12.42,1.19-24.25,7.49-32.26,17.05-2.81,3.35-5.2,7.16-6.32,11.39-2.87,10.77,3.5,22.76,13.38,27.91s25.97,5.92,37.62-1.46c8.89-5.64,14.71-20.24,13.04-35.07Z" style="fill: #f0fbff;"/>
        <path d="m186.21,43.41c-.8-6.7-3.45-13.47-9.2-17.42s-13.59-4.2-20.4-3.13c-13.65,2.15-27.23,10.6-34.1,22.77-3.3,5.86-4.16,12.55-2.15,19,1.87,6,5.85,11.31,11.06,14.83s11.36,5.02,17.42,5.47c6.7.49,13.56-.54,19.71-3.29,5.71-2.56,10-6.74,12.95-12.25,3.31-6.17,4.9-13.25,5-20.23.03-1.92-.08-3.84-.28-5.75-.15-1.42-2.41-1.44-2.25,0,.73,6.73.04,13.58-2.25,19.97-1.89,5.27-5.01,10.59-9.72,13.8-9.79,6.67-23.83,7.29-34.65,2.89s-18.41-16.59-15.09-28.13c1.87-6.5,6.68-12.05,11.76-16.33s10.6-7.2,16.68-9.07c6.87-2.11,14.91-3.1,21.76-.42,7.15,2.8,10.64,10.05,11.5,17.3.17,1.42,2.42,1.44,2.25,0Z" style="fill: #1a1919;"/>
      </g>
      <path d="m154.71,55.08c-1.12.19-2.24-.45-2.62-1.56-.12-.34-3.14-8.51-10.73-6.83-3.29.73-5.65,2.28-7.01,4.61-1.04,1.78-1.13,3.41-1.13,3.43-.03,1.31-1.12,2.33-2.43,2.3-1.31-.03-2.34-1.13-2.31-2.44.09-3.45,2.69-10.5,11.86-12.53,4.88-1.08,9.27.33,12.68,4.09,2.44,2.69,3.51,5.68,3.55,5.8.43,1.24-.22,2.59-1.45,3.02-.13.05-.27.08-.4.1Z" style="fill: #1a1919;"/>
      <path d="m331.54,264.97s79.57,13.16,110.74-43.79c31.17-56.95,29.17-134.1-15.28-152.92,0,0-20.92-6.43-17.33,8.26,1.3,5.31,16.33,5.52,10.06,19.42-6.28,13.9-58.86,36.23-58.86,36.23l-37.62,29.91,8.3,102.88Z" style="fill: #5e6367;"/>
      <ellipse cx="395.84" cy="180.2" rx="61.68" ry="46.98" transform="translate(108.68 506.85) rotate(-73.16)" style="fill: #b0b0b1;"/>
      <path d="m419.54,96.13s-109.5,19.59-180.43,32.13c-57.7,10.21-26.21,87.37,0,109.91,32.05,27.56,145.14,45.23,180.43-7.86,35.28-53.09-12.94-96.57-12.94-96.57,0,0,20.16-8.54,12.94-37.62Z" style="fill: #84574e;"/>
      <path d="m375.49,61.37s-77.52,22.23-100.24,62.75c-22.72,40.52,1.47,54.84,26.48,65.67,25.01,10.82,97.76-8.01,106.09-48.24,8.32-40.23-32.17-38.25-32.17-38.25,0,0,11.16-26.29-.17-41.92Z" style="fill: #b79277;"/>
      <g>
        <path d="m139.68,51.07c13.67-75.42,132.67-68.83,119.15,29.92-2.62,26.77-15.21,39.89-6.82,61.41,8.4,21.52-7.35,41.47-24.67,36.74-37.91-13.75-93.61-79.86-87.66-128.08Z" style="fill: #03a6a6;"/>
        <g style="clip-path: url(#clippath);">
          <path d="m253.59,139.78l18.37,25.72-46.19,37.27-30.4-23.12s18.85-1.02,34.6-16.25c15.75-15.22,23.62-23.62,23.62-23.62Z" style="fill: #f0fbff;"/>
        </g>
      </g>
      <g>
        <path d="m170.45,60.67c-.03,6.06,1.61,12.41,5.92,16.67,4.39,4.34,10.86,5.86,17.02,6,12.47.27,24.96-4.58,34.05-13.14,3.19-3,6-6.5,7.62-10.57,4.12-10.36-.8-23.01-10-29.29-9.2-6.27-25.09-8.94-37.53-2.98-9.5,4.55-16.99,18.37-17.07,33.3Z" style="fill: #f0fbff;"/>
        <path d="m169.33,60.67c0,6.65,1.89,13.78,7.11,18.26s12.78,5.76,19.62,5.51c14.08-.51,28.83-7.41,37.11-19.06,3.86-5.43,5.27-11.94,4-18.48-1.18-6.1-4.57-11.86-9.33-15.85s-11-6.4-17.14-7.47c-6.87-1.2-14.12-.89-20.7,1.53-12.37,4.54-18.78,17.77-20.32,30.17-.22,1.79-.33,3.58-.35,5.38-.01,1.45,2.24,1.45,2.25,0,.07-6.59,1.51-13.21,4.43-19.14,2.39-4.85,5.81-9.51,10.51-12.34,5.42-3.26,12.21-4.28,18.45-3.99,5.97.27,12.03,1.8,17.27,4.72,9.97,5.56,16.16,18.36,11.74,29.41-2.51,6.28-8.01,11.34-13.55,14.98s-11.8,6.13-18.33,7.26c-6.98,1.21-15.1,1.17-21.43-2.41-6.64-3.76-9.08-11.24-9.09-18.49,0-1.45-2.25-1.45-2.25,0Z" style="fill: #1a1919;"/>
      </g>
      <path d="m26.35,89.87l131.32-14.23s20.64-2.32,16.1,8.62c-4.54,10.94-63.56,29.04-106.21,32.38C24.92,119.98-.34,108.77,0,102.15s3.55-9.8,26.35-12.28Z" style="fill: #d98e04;"/>
      <path d="m216.27,63.64c-1.46,0-2.75-1.05-3.01-2.54-.08-.46-2.2-11.5-12.22-10.97-4.34.23-7.68,1.7-9.91,4.39-1.71,2.05-2.16,4.11-2.17,4.13-.32,1.66-1.93,2.73-3.59,2.41-1.66-.32-2.74-1.94-2.42-3.6.85-4.37,5.65-12.8,17.77-13.44,6.45-.34,11.73,2.39,15.29,7.9,2.54,3.94,3.27,7.97,3.3,8.14.29,1.67-.83,3.25-2.49,3.54-.18.03-.35.05-.53.05Z" style="fill: #1a1919;"/>
    </g>
  </g>
</svg>