<?xml version="1.0" encoding="UTF-8"?>
<svg id="Capa_2" data-name="Capa 2" xmlns="http://www.w3.org/2000/svg" xmlns:xlink="http://www.w3.org/1999/xlink" viewBox="0 0 324.12 270.25">
  <defs>
    <clipPath id="clippath">
      <path d="m.44,55.04C14.11-20.38,133.11-13.8,119.59,84.96c-2.62,26.77-15.21,39.89-6.82,61.41,8.4,21.52-7.35,41.47-24.67,36.74C50.19,169.37-5.51,103.26.44,55.04Z" style="fill: #03a6a6;"/>
    </clipPath>
  </defs>
  <g id="Patos">
    <g>
      <g>
        <path d="m74.19,7.08c-5.27,2.99-9.95,7.59-11.49,13.44-1.57,5.97.34,12.34,3.29,17.75,5.98,10.94,16.42,19.34,28.37,22.95,4.19,1.26,8.62,1.96,12.96,1.33,11.03-1.6,19.55-12.18,20.39-23.28.85-11.1-4.77-26.21-16.15-34.01-8.68-5.96-24.39-5.56-37.37,1.82Z" style="fill: #f0fbff;"/>
        <path d="m73.62,6.1c-5.79,3.33-11.05,8.57-12.29,15.37-1.35,7.41,1.8,14.89,5.86,20.94,3.8,5.66,8.78,10.49,14.51,14.17,6.06,3.9,13.25,6.76,20.49,7.25,13.75.93,25.07-10.42,26.56-23.69.66-5.81-.51-11.88-2.58-17.31-2.27-5.96-5.79-11.53-10.55-15.81S105.5.68,99.3.14c-7-.6-14.17.78-20.62,3.49-1.74.73-3.42,1.55-5.06,2.48-1.26.71-.13,2.65,1.14,1.94,5.96-3.35,12.69-5.43,19.54-5.75,5.54-.26,11.44.56,16.19,3.6,9.61,6.14,15.55,18.23,16.13,29.44s-6.58,23.35-18.21,25.88c-7.01,1.52-14.66-.8-20.93-3.92-5.62-2.8-10.66-6.68-14.8-11.4-4.84-5.52-9.2-12.78-9.42-20.31s5.05-13.82,11.49-17.53c1.25-.72.12-2.67-1.14-1.94Z" style="fill: #1a1919;"/>
      </g>
      <g>
        <circle cx="112.37" cy="36.55" r="11.55" style="fill: #1a1919;"/>
        <circle cx="109.48" cy="32.61" r="3.94" style="fill: #f0fbff;"/>
      </g>
      <path d="m188.51,70.75s-72.83,34.62-88.61,78.31c-15.78,43.69,10.43,53.86,36.88,60.44,26.44,6.58,95.13-23.91,96.76-64.96,1.63-41.05-37.99-32.47-37.99-32.47,0,0,6.7-27.76-7.03-41.33Z" style="fill: #91745e;"/>
      <path d="m192.29,268.94s79.57,13.16,110.74-43.79c31.17-56.95,29.17-134.1-15.28-152.92,0,0-20.92-6.43-17.33,8.26,1.3,5.31,16.33,5.52,10.06,19.42-6.28,13.9-58.86,36.23-58.86,36.23l-37.62,29.91,8.3,102.88Z" style="fill: #5e6367;"/>
      <ellipse cx="256.59" cy="184.16" rx="61.68" ry="46.98" transform="translate(5.99 376.4) rotate(-73.16)" style="fill: #b0b0b1;"/>
      <path d="m280.3,100.09s-109.5,19.59-180.43,32.13c-57.7,10.21-26.21,87.37,0,109.91,32.05,27.56,145.14,45.23,180.43-7.86,35.28-53.09-12.94-96.57-12.94-96.57,0,0,20.16-8.54,12.94-37.62Z" style="fill: #84574e;"/>
      <path d="m236.25,65.34s-77.52,22.23-100.24,62.75c-22.72,40.52,1.47,54.84,26.48,65.67,25.01,10.82,97.76-8.01,106.09-48.24,8.32-40.23-32.17-38.25-32.17-38.25,0,0,11.16-26.29-.17-41.92Z" style="fill: #b79277;"/>
      <g>
        <path d="m.44,55.04C14.11-20.38,133.11-13.8,119.59,84.96c-2.62,26.77-15.21,39.89-6.82,61.41,8.4,21.52-7.35,41.47-24.67,36.74C50.19,169.37-5.51,103.26.44,55.04Z" style="fill: #03a6a6;"/>
        <g style="clip-path: url(#clippath);">
          <path d="m114.35,143.75l18.37,25.72-46.19,37.27-30.4-23.12s18.85-1.02,34.6-16.25c15.75-15.22,23.62-23.62,23.62-23.62Z" style="fill: #f0fbff;"/>
        </g>
      </g>
      <g>
        <path d="m92.29,52.64c.03,6.06-1.61,12.41-5.92,16.67-4.39,4.34-10.86,5.86-17.02,6-12.47.27-9.45-8.04-20.98-12.84-12-5-16,0-20.69-10.86-4.42-10.23.8-23.01,10-29.29,9.2-6.27,25.09-8.94,37.53-2.98,9.5,4.55,16.99,18.37,17.07,33.3Z" style="fill: #f0fbff;"/>
        <path d="m91.16,52.64c0,7.25-2.45,14.74-9.09,18.49-3.2,1.81-6.91,2.66-10.55,2.94-2.92.23-6.19.32-8.85-1.12-1.87-1.02-3.18-2.71-4.5-4.33-1.64-2-3.42-3.82-5.6-5.24-4.8-3.12-10.31-4-15.81-5-1.62-.3-3.25-.71-4.53-1.8-1.89-1.6-3.09-4.14-3.91-6.42-2.2-6.18-.91-13.05,2.34-18.61,7.02-12.02,23.06-16.28,36.11-13.78,3.37.65,6.79,1.73,9.72,3.55,2.56,1.59,4.75,3.77,6.56,6.16,4.27,5.62,6.81,12.56,7.73,19.53.25,1.87.36,3.75.38,5.63.01,1.45,2.26,1.45,2.25,0-.14-14.05-6.57-30.37-20.67-35.55-7.29-2.68-15.44-2.8-22.96-1.08-6.8,1.56-13.42,4.74-18.01,10.11s-7.26,12.17-6.76,19.1c.25,3.38,1.3,6.61,2.97,9.55,1.1,1.93,2.57,3.72,4.61,4.7,1.84.88,3.87,1.13,5.86,1.45,2.98.47,5.89,1.16,8.71,2.26,3.09,1.2,5.79,2.95,8.02,5.4,1.58,1.74,2.91,3.75,4.76,5.23,2.24,1.79,4.99,2.48,7.82,2.6,3.81.16,7.81-.35,11.42-1.58s6.97-3.29,9.37-6.32,3.72-6.49,4.36-10.16c.33-1.89.48-3.81.48-5.73,0-1.45-2.25-1.45-2.25,0Z" style="fill: #1a1919;"/>
      </g>
      <path d="m186.01,40.53s-89.14,37.43-137.14,24.81c-11.13-2.92-20.01,5.55-11.72,14,8.29,8.45,78.91,17.43,119.72,4.61,40.81-12.82,60.96-35.86,58.16-41.87-2.79-6.01-6.96-7.76-29.03-1.56Z" style="fill: #d98e04;"/>
      <g>
        <circle cx="67.37" cy="53.55" r="11.55" style="fill: #1a1919;"/>
        <circle cx="64.48" cy="49.61" r="3.94" style="fill: #f0fbff;"/>
      </g>
    </g>
  </g>
</svg>